<?xml version="1.0" encoding="utf-8"?>
<!-- Generator: Adobe Illustrator 23.0.1, SVG Export Plug-In . SVG Version: 6.00 Build 0)  -->
<svg version="1.1" id="Layer_1" xmlns="http://www.w3.org/2000/svg" xmlns:xlink="http://www.w3.org/1999/xlink" x="0px" y="0px"
	 viewBox="0 0 164.4 164.4" style="enable-background:new 0 0 164.4 164.4;" xml:space="preserve">
<style type="text/css">
	.st0{fill-rule:evenodd;clip-rule:evenodd;fill:#FFFFFF;}
	.st1{fill-rule:evenodd;clip-rule:evenodd;fill:#7C2D30;}
	.st2{fill:#FFFFFF;}
</style>
<path class="st0" d="M17.5,24.9c0,0,33,14.4,64.4-19.8c0,0,24.2,29.9,65.3,20.4c0,0,7.6,38.3-13.8,78.2c0,0-4.1,20.4-51.2,57.8
	c0,0-37-26.7-50.6-56.5c0,0-17.9-29.5-15.1-77.2L17.5,24.9z"/>
<path class="st1" d="M44.9,116.1c-12-17.5-18-34.7-20.8-49h20.8V116.1z M68.1,142.5C61,136,55,129.4,49.8,122.8V67.1h18.3V142.5z
	 M91.3,146.7c-2.9,2.5-6,4.9-9.2,7.3c-3.2-2.4-6.2-4.8-9.1-7.2V67.1h18.3V146.7z M114.5,122.6c-5.1,6.6-11.2,13.3-18.3,19.8V67.1
	h18.3V122.6z M140.2,67.1c-2.8,14.2-8.8,31.4-20.8,48.9V67.1H140.2z M82.2,12.9c0,0,21.5,26.5,59.7,18.7c0,0,2.2,12.6-0.9,31.2H23.3
	c-3.1-18.6-0.9-31.2-0.9-31.2C60.7,39.4,82.2,12.9,82.2,12.9z M82.2,8.7c0,0-21.7,28.1-62.5,19.3c0,0-14,73.9,62.5,130.3
	c76.5-56.4,62.5-130.3,62.5-130.3C103.8,36.8,82.2,8.7,82.2,8.7z M82.2-0.1c0,0-23.9,35.9-66.9,21c0,0-18.3,82.3,66.9,143.6
	C167.4,103.2,149,20.9,149,20.9C106,35.8,82.2-0.1,82.2-0.1z"/>
<path class="st2" d="M86.6,35.8H81L73,57.1h5.7l1.3-3.8h7.4l1.3,3.8h5.8L86.6,35.8z M81.4,48.4l2.4-7.4l2.4,7.4H81.4z"/>
<path class="st0" d="M55,42.3c-0.6-1.4-2.7-2.1-4.6-2.1c-3.6,0-4.9,3.2-4.9,6.3c0,3.2,1.4,6.3,4.9,6.3c2.1,0,4.1-1,4.7-2.7l4.7,2.9
	c-1.6,2.9-5.2,4.6-9.1,4.6c-6.4,0-10.7-4.9-10.7-11.1c0-6.2,4.3-11.1,10.7-11.1c3.2,0,7.1,1.4,8.9,4.1L55,42.3z"/>
<g>
	<path class="st2" d="M107,57.4V35.5h7.2c2.7,0,4.4,0.1,5.3,0.3c1.3,0.3,2.4,1.1,3.3,2.2c0.9,1.1,1.3,2.5,1.3,4.3
		c0,1.6-0.4,2.9-1.1,4c-0.7,1.1-1.7,1.8-2.8,2.3c-1.1,0.4-3,0.6-5.7,0.6h-2.9v8.2H107z M111.5,39.2v6.2h2.5c1.7,0,2.8-0.1,3.4-0.3
		c0.6-0.2,1.1-0.5,1.5-1c0.4-0.5,0.6-1.1,0.6-1.8c0-0.7-0.2-1.3-0.6-1.8c-0.4-0.5-0.9-0.8-1.5-1s-1.8-0.3-3.7-0.3H111.5z"/>
</g>
</svg>
