<?xml version="1.0" encoding="utf-8"?>
<!-- Generator: Adobe Illustrator 23.0.1, SVG Export Plug-In . SVG Version: 6.00 Build 0)  -->
<svg version="1.1" id="Layer_1" xmlns="http://www.w3.org/2000/svg" xmlns:xlink="http://www.w3.org/1999/xlink" x="0px" y="0px"
	 viewBox="0 0 595.3 595.3" style="enable-background:new 0 0 595.3 595.3;" xml:space="preserve">
<style type="text/css">
	.st0{fill:#0F6A45;}
	.st1{fill:#FFFFFF;}
</style>
<g>
	<path class="st0" d="M297.5,594.2c-21.5-23-50.3-34.1-78.4-46.2c-25.6-11-51.6-21-76.2-34.3c-14.5-7.9-28.3-16.7-40.7-27.7
		c-15-13.3-26.1-29.3-33.1-48.2c-10.8-29-17.1-58.6-15.3-89.6c1.3-22.6,6.9-44.1,14.5-65.3c6.5-18.1,13.3-36.1,19.3-54.4
		c11.3-34.9,6.2-67.9-13.8-98.5c-5.6-8.6-12.2-16.6-18.3-24.8c-0.7-1-1.6-1.9-2.4-3C61,92.5,69,82.9,77,73.2
		c19.3-23.3,38.6-46.5,57.7-69.9c1.9-2.3,3.3-2.6,6-1.3c34.3,15.9,69.7,28.6,107.3,34.6c25.6,4.1,51.2,4.7,77,2.6
		c45.1-3.6,86.8-18.7,127.4-37.5c2-0.9,3.2-1,4.8,0.9c27.9,32.7,55.8,65.4,83.8,98c0.4,0.5,0.8,1.1,1.3,1.8
		c-1.5,1.8-3.1,3.5-4.5,5.4c-6.9,9.8-14.3,19.2-20.4,29.5c-17.5,29.5-20.2,61-9.9,93.5c5.9,18.6,12.9,36.9,19.4,55.4
		c8.8,24.9,14.7,50.2,14.3,76.8c-0.4,30.2-7.6,59-20,86.4c-9,19.9-24.1,34.8-41.6,47.4c-20.2,14.6-42.5,25.2-65.2,35.1
		c-23.8,10.3-47.8,20.2-71.3,31.1c-10.8,5-20.8,11.7-30.8,18.3C307,584.8,302.6,589.7,297.5,594.2z M92,104.5c1.7,0.7,2.8,1.2,4,1.6
		c31,11.8,60.1,27.2,86.9,46.8c33.8,24.6,62.4,54.3,85.7,89c1.6,2.3,3,2.9,5.7,2.1c13.6-3.9,26.7-8.9,39.3-15.3
		c1.9-0.9,2.7-1.9,2.2-4.1c-1.5-7.9-2.6-15.9-4.2-23.8c-9-45.1-24.1-87.9-47.2-127.8c-2.7-4.7-5.7-7-11.5-7.8
		c-34.4-4.4-67.2-14.8-98.6-29.3c-2.6-1.2-3.8-0.8-5.5,1.3c-13.2,15.8-26.6,31.4-39.9,47.1C103.5,91,97.9,97.6,92,104.5z
		 M251.7,292.5c-0.7,0.1-1.2,0.1-1.6,0.2c-13,3.7-26.1,6.2-39.6,6.9c-2.4,0.1-2.7,1.4-2.7,3.3c-0.3,12.2-0.6,24.4-1,36.6
		c-0.8,28.3-1.6,56.6-2.4,84.9c-0.8,26.9-1.5,53.7-2.3,80.6c-0.1,2.1,0.6,3.2,2.6,3.9c6.2,2.3,12.3,4.7,18.4,7.2
		c26.5,10.9,54,20.2,74.2,41.7c4.9-4.2,9.6-8.5,14.6-12.3c2.2-1.7,2.7-3.1,2-5.8c-18.8-74.1-37.4-148.3-56.1-222.4
		C255.9,308.9,253.8,300.7,251.7,292.5z M418.5,496.9c19.6-7,47.4-24.6,61-39.5c5.8-6.4,10.4-13.9,15.6-20.9
		c1.4-1.9,1.2-3.3-0.4-5.2c-54-62.8-107.9-125.6-161.8-188.5c-0.6-0.7-0.8-1.6-0.8-1.7c-9.2,8.2-17.4,15.9-26,23.2
		c-2.3,2-2.7,3.2-1.3,5.9c35.1,69.8,70.1,139.7,105.1,209.6C412.7,485.4,415.6,491,418.5,496.9z M267.1,245.4
		c-21-31.4-46.1-58.7-75.8-82c-28.6-22.4-60-39.9-94-52.8c0.4,1.1,1.1,2,1.7,2.8c4.6,6.5,9.5,12.8,13.7,19.5
		c11.8,19.2,17.6,40,15.6,62.7c-1.1,12.3-4,24.2-7.9,36c-1.5,4.4-3,8.8-4.5,13.2C141.7,256.1,242.5,256.5,267.1,245.4z M366.6,61.1
		c-33.6,7.4-67.3,8.5-101.9,5.7c33.1,55.3,50.1,115.1,57.3,179c2.8-3.1,5.1-5.5,7.2-8c27.3-32.6,40-70.7,42.3-112.6
		C372.7,103.9,371,82.7,366.6,61.1z M353.3,207.7c50.5,37.1,100.8,74.2,151.9,111.8c-0.4-2.2-0.6-3.4-0.9-4.6
		c-5.2-16.7-10.2-33.6-15.9-50.1c-6.6-19.1-14.3-37.9-17.8-57.9c-0.2-1.2-1.7-2.5-2.9-3.1c-31.2-15.3-62.5-30.4-93.8-45.6
		c-0.8-0.4-1.7-0.7-2.9-1.2C367.2,174.8,361.5,191.5,353.3,207.7z M370,60.6c0.2,1.1,0.3,2,0.4,2.9c1.5,13,3.1,26,4.3,39
		c0.3,2.8,1.1,4.3,3.6,5.6c31,15.3,61.9,30.7,92.8,46.1c1,0.5,2,0.9,3.3,1.5c6.9-19.3,18.4-35.6,31.8-50.7c-0.6-0.8-1-1.4-1.5-2
		c-19.7-22.2-39.4-44.3-59-66.6c-1.5-1.7-2.6-1.2-4.3-0.5c-15.7,6.1-31.4,12.3-47.3,18C386.4,56.6,378.3,58.3,370,60.6z
		 M124.8,466.1c9-57.2,17.9-113.6,26.6-169.5c-16.7-5-33-9.9-49.5-14.9c-0.9,2.6-2,5.6-3.1,8.7c-16,45.6-17.7,91.5-2.1,137.6
		C101.9,443.3,112.3,454.9,124.8,466.1z M285.2,274.5c-5.3-8.6-10.1-16.7-15.3-24.7c-0.4-0.7-2.4-0.7-3.5-0.5
		c-20.9,5-42.1,7.3-63.5,7.6c-28.7,0.5-57.2-2.6-85.3-8.1c-2.3-0.5-3.4-0.1-4.2,2.2c-2.5,7-5.3,14-8,21c-0.7,1.8-1.3,3.7-2.1,5.9
		C164.5,301.3,224.8,306.3,285.2,274.5z M317,231.6c-14.8,5.7-29.2,11.3-43.7,16.8c4.7,7.9,9.6,16,14.5,24.2
		c11-6.4,20.8-14,29.8-22.6c0.6-0.6,1.1-1.7,1.1-2.6C318.2,242.1,317.6,236.8,317,231.6z M391.6,530.7c0.1-5-4.3-9.5-9.3-9.5
		c-4.9,0-9.2,4.2-9.3,9.1c-0.1,5,4.3,9.5,9.3,9.5C387.2,539.9,391.5,535.7,391.6,530.7z M208.3,53.4c5,0,9.2-4.2,9.3-9.1
		c0.1-5-4.3-9.5-9.3-9.4c-4.9,0-9.2,4.2-9.3,9.2C198.8,49,203.2,53.4,208.3,53.4z M417,507.3c-5-0.3-9.6,3.8-9.8,8.9
		c-0.2,4.9,3.8,9.3,8.8,9.6c5,0.3,9.6-3.8,9.8-8.9C426,512,422,507.6,417,507.3z M95.3,123.6c-4.9,0.1-9.2,4.4-9.2,9.3
		c0,4.9,4.3,9.2,9.2,9.3c5,0.1,9.5-4.4,9.4-9.5C104.6,127.7,100.3,123.5,95.3,123.6z M525.3,380.1c4.9,0,9.2-4.2,9.3-9.1
		c0.1-5.1-4.2-9.4-9.3-9.4c-5,0-9.2,4.1-9.3,9.1C515.9,375.7,520.3,380.1,525.3,380.1z M418.5,23.7c-5,0-9.2,4.2-9.3,9.1
		c-0.1,5,4.3,9.4,9.3,9.4c5,0,9.4-4.5,9.3-9.5C427.7,27.8,423.5,23.6,418.5,23.7z M501.8,88c0,5,4.4,9.4,9.5,9.3
		c4.9-0.1,9.1-4.3,9.1-9.3c0-4.9-4.1-9.2-9.1-9.3C506.3,78.6,501.8,82.9,501.8,88z M471.3,33.4c0-5-4.1-9.2-9-9.3
		c-5-0.1-9.5,4.2-9.5,9.3c0,5.1,4.3,9.4,9.4,9.3C467.2,42.6,471.3,38.4,471.3,33.4z M358.7,52.1c0-5.1-4.3-9.4-9.4-9.3
		c-5,0-9.1,4.1-9.2,9.2c-0.1,5,4,9.2,9,9.3C354.4,61.4,358.7,57.2,358.7,52.1z M83.5,411.6c0.1-5.1-3.9-9.3-8.9-9.4
		c-5.1-0.1-9.3,3.9-9.5,8.9c-0.2,5.3,3.9,9.5,9.1,9.5C79.3,420.6,83.4,416.7,83.5,411.6z M180.4,508.3c-5.1,0-9.2,4-9.2,9.1
		c-0.1,5.1,3.9,9.2,9,9.3c5.2,0.1,9.5-4,9.4-9.2C189.5,512.4,185.4,508.3,180.4,508.3z M96.9,449.1c0.1-5.1-3.9-9.2-9-9.4
		c-5.2-0.1-9.5,4-9.5,9.2c0,5.1,4.1,9.2,9.2,9.2C92.8,458.2,96.9,454.2,96.9,449.1z M102.8,261.8c0-5-4.2-9.2-9.2-9.3
		c-5-0.1-9.2,4.1-9.3,9.1c-0.1,5.2,4.1,9.5,9.3,9.5C98.6,271.1,102.8,266.8,102.8,261.8z M489.1,215.5c-5.1,0.1-9.2,4.5-9,9.6
		c0.2,5,4.5,9.1,9.4,8.9c5.1-0.1,9.3-4.5,9.1-9.6C498.4,219.6,494,215.4,489.1,215.5z M183.7,32.5c0-5.1-4-9.2-9.1-9.2
		c-5.1,0-9.3,4-9.4,9c-0.1,5.1,4.2,9.4,9.3,9.4C179.7,41.6,183.7,37.6,183.7,32.5z M488.4,150.3c-5.1,0-9.4,4.3-9.3,9.4
		c0.1,5,4.3,9.1,9.3,9.1c5,0,9.2-4,9.3-9C497.7,154.7,493.5,150.3,488.4,150.3z M393.3,44.4c0.1-5-4-9.2-9-9.3
		c-5.1-0.1-9.5,4.1-9.5,9.2c0,5.1,4.3,9.4,9.4,9.4C389.2,53.6,393.3,49.5,393.3,44.4z M510.1,259c-0.1-5-4.2-9.2-9.2-9.2
		c-5.1,0-9.3,4.3-9.3,9.4c0.1,5,4.2,9.1,9.2,9.2C505.9,268.5,510.2,264.1,510.1,259z M459.7,500.2c0-5-4.1-9.2-9.1-9.3
		c-5.1-0.1-9.4,4.2-9.3,9.3c0,5,4,9.2,9.1,9.2C455.4,509.6,459.7,505.4,459.7,500.2z M81.4,334.4c0-5-4.1-9.2-9.1-9.3
		c-5.1-0.1-9.4,4.2-9.3,9.4c0.1,5,4.3,9.2,9.2,9.1C77.2,343.6,81.4,339.4,81.4,334.4z M522.2,322.7c-5.2,0.1-9.2,4.3-9.1,9.5
		c0.1,5,4.4,9.1,9.4,9c5.1-0.1,9.2-4.4,9.1-9.6C531.4,326.6,527.2,322.6,522.2,322.7z M494.3,130.5c-0.1,5.1,3.8,9.2,8.9,9.3
		c5.3,0.1,9.5-3.9,9.5-9c0.1-5.2-4.1-9.4-9.2-9.4C498.4,121.4,494.3,125.4,494.3,130.5z M243.2,61.2c5,0,9.2-4.2,9.2-9.2
		c0-5-4.2-9.2-9.2-9.2c-5.1,0-9.5,4.3-9.4,9.4C233.9,57.2,238.2,61.3,243.2,61.2z M107.3,72.4c5,0,9.2-4.1,9.2-9.2
		c0-5.1-4-9.2-9-9.3c-5.2-0.1-9.5,4.2-9.4,9.3C98.1,68.2,102.3,72.4,107.3,72.4z M110.1,154.2c-5,0.1-9.1,4.2-9.1,9.3
		c0.1,5.1,4.2,9.1,9.2,9.1c5.2,0,9.4-4.4,9.3-9.5C119.4,158.1,115.2,154.1,110.1,154.2z M513.3,303.6c4.9,0,9.2-4.2,9.3-9.1
		c0.1-5.1-4.2-9.4-9.4-9.3c-5,0-9.2,4.1-9.3,9.1C503.8,299.3,508.2,303.6,513.3,303.6z M69.9,363.7c-5.1,0.1-9.1,4.1-9.1,9.3
		c0,5.1,4.1,9.2,9.2,9.2c5.1,0,9.4-4.4,9.3-9.5C79.2,367.7,75,363.7,69.9,363.7z M90.7,296.7c0.1-5-4.1-9.3-9-9.4
		c-5.2-0.1-9.4,4-9.4,9.3c0,5.1,4.1,9.2,9.1,9.2C86.5,305.8,90.7,301.7,90.7,296.7z M520.4,417.3c5.1,0,9.1-3.9,9.2-9
		c0.1-5.2-4-9.4-9.2-9.4c-4.9,0-9.2,4.1-9.3,9.1C511.1,413.1,515.2,417.3,520.4,417.3z M83.4,100.1c5,0,9.2-4.3,9.2-9.2
		c0-5.1-4.4-9.3-9.6-9.2c-5,0.1-9.1,4.4-9,9.4C74.2,96.1,78.4,100.2,83.4,100.1z M518.2,446.6c0.1-5.1-3.8-9.3-8.8-9.5
		c-5.1-0.2-9.5,3.9-9.7,9c-0.1,5,3.8,9.3,8.8,9.5C513.8,455.8,518.1,451.9,518.2,446.6z M495.9,60.5c0-5-4-9.2-9-9.3
		c-5.1-0.1-9.4,4.1-9.4,9.3c0,5,4,9.2,9,9.3C491.6,69.9,495.9,65.6,495.9,60.5z M483,487.1c5.1,0,9.4-4.3,9.3-9.4
		c-0.1-5-4.3-9.1-9.3-9.1c-5.1,0-9.4,4.3-9.3,9.4C473.8,483,478,487.1,483,487.1z M122.5,194.8c0-5.1-4.1-9.1-9.2-9.1
		c-5.1,0-9.2,4.1-9.2,9.1c0,5.1,4.3,9.4,9.4,9.3C118.6,204.1,122.5,199.9,122.5,194.8z M314.4,46.8c-5,0-9.3,4.1-9.4,9.1
		c-0.1,5.1,4.2,9.4,9.4,9.4c5,0,9.2-4.2,9.2-9.2C323.6,51,319.4,46.8,314.4,46.8z M106.5,237.2c5.1,0,9.2-4,9.3-9
		c0.1-5.1-3.9-9.3-9-9.4c-5.2-0.1-9.5,4.1-9.5,9.2C97.3,233.1,101.4,237.2,106.5,237.2z M214.9,540.2c5.1,0,9.3-4,9.4-9
		c0.1-5.1-4.2-9.5-9.4-9.4c-5,0-9.2,4.3-9.2,9.2C205.7,536,209.9,540.2,214.9,540.2z M358.1,543.7c-0.1-5.1-4.5-9.3-9.6-9.2
		c-5,0.2-9.1,4.4-9,9.4c0.1,5.1,4.4,9.2,9.6,9.1C354.1,552.9,358.1,548.7,358.1,543.7z M257.5,544.7c0-5.1-4.1-9.2-9.2-9.2
		c-5,0-9.2,4.1-9.2,9.2c0,5.2,4.3,9.5,9.4,9.4C253.4,554,257.5,549.8,257.5,544.7z M327.3,560.9c0-5-4.2-9.2-9.2-9.3
		c-5,0-9.2,4.1-9.3,9.1c-0.1,5.2,4.2,9.5,9.3,9.4C323.2,570.1,327.3,565.9,327.3,560.9z M130.9,44.4c5,0.1,9.3-4,9.4-9
		c0.1-4.9-4-9.3-9-9.4c-5.2-0.1-9.6,4.1-9.6,9.2C121.7,40.1,125.9,44.3,130.9,44.4z M483.8,182.5c-5.1,0-9.4,4.3-9.4,9.3
		c0.1,5,4.2,9.1,9.2,9.1c5.1,0,9.5-4.3,9.4-9.3C492.9,186.7,488.7,182.5,483.8,182.5z M154.6,500.9c0-5-4.3-9.2-9.2-9.2
		c-5,0-9.2,4.2-9.2,9.2c0,5.2,4.3,9.5,9.4,9.3C150.7,510.1,154.7,505.9,154.6,500.9z M278.9,46.5c-5,0-9.2,4.2-9.2,9.2
		c0,5.1,4.1,9.3,9.1,9.3c5.1,0.1,9.5-4.3,9.4-9.4C288.2,50.7,284,46.5,278.9,46.5z M122.5,479.2c0-5.1-4.1-9.1-9.2-9.2
		c-5,0-9.2,4.1-9.3,9.1c0,5.2,4.2,9.4,9.4,9.3C118.6,488.4,122.5,484.3,122.5,479.2z M277.8,571c5.1,0.1,9.3-3.9,9.5-8.9
		c0.2-5.1-4-9.5-9.2-9.5c-5,0-9.3,4.1-9.3,9.1C268.6,566.6,272.8,570.9,277.8,571z"/>
	<path class="st1" d="M92,104.5c5.9-6.9,11.4-13.5,17-20c13.3-15.7,26.7-31.4,39.9-47.1c1.7-2,2.9-2.5,5.5-1.3
		c31.5,14.5,64.2,24.8,98.6,29.3c5.7,0.7,8.7,3,11.5,7.8c23.1,39.9,38.2,82.7,47.2,127.8c1.6,7.9,2.7,15.9,4.2,23.8
		c0.4,2.2-0.4,3.1-2.2,4.1c-12.6,6.4-25.8,11.3-39.3,15.3c-2.8,0.8-4.1,0.2-5.7-2.1c-23.4-34.7-51.9-64.4-85.7-89
		c-26.9-19.5-55.9-34.9-86.9-46.8C94.9,105.7,93.8,105.2,92,104.5z M265.6,134.3c-0.2-0.4-0.3-0.6-0.4-0.7
		c-15.6-13.3-31.2-26.5-46.7-39.9c-2.4-2.1-3.6,0.2-5.2,0.9c-1.5,0.6-2.4,1.5-1.9,3.6c2.8,11.4,5.4,22.8,8,34.3c2,8.5,4,17.1,6,25.7
		c5.9-2.7,5.9-2.7,4.5-8.3c-0.9-3.7-1.8-7.4-2.8-11c-0.5-1.9-0.1-3,1.7-4c4.8-2.7,9.5-5.5,14.1-8.4c1.6-1,2.7-1.1,4.1,0.3
		c2.7,2.6,5.5,4.9,8.3,7.4C260,138.2,260,138.2,265.6,134.3z"/>
	<path class="st1" d="M251.7,292.5c2.1,8.3,4.2,16.5,6.3,24.7c18.7,74.1,37.4,148.3,56.1,222.4c0.7,2.7,0.2,4.1-2,5.8
		c-5,3.8-9.7,8.1-14.6,12.3c-20.2-21.5-47.7-30.7-74.2-41.7c-6.1-2.5-12.2-4.9-18.4-7.2c-2-0.7-2.7-1.8-2.6-3.9
		c0.8-26.9,1.5-53.7,2.3-80.6c0.8-28.3,1.6-56.6,2.4-84.9c0.3-12.2,0.7-24.4,1-36.6c0-1.9,0.3-3.1,2.7-3.3
		c13.5-0.8,26.6-3.3,39.6-6.9C250.5,292.5,250.9,292.5,251.7,292.5z"/>
	<path class="st1" d="M418.5,496.9c-3-5.9-5.8-11.5-8.7-17.2c-35-69.9-70-139.7-105.1-209.6c-1.4-2.8-1-4,1.3-5.9
		c8.6-7.3,16.8-15,26-23.2c0,0.1,0.2,1,0.8,1.7c53.9,62.9,107.8,125.7,161.8,188.5c1.6,1.9,1.8,3.4,0.4,5.2
		c-5.1,7-9.7,14.5-15.6,20.9C466,472.3,438.2,489.9,418.5,496.9z"/>
	<path class="st1" d="M267.1,245.4c-24.6,11.2-125.4,10.7-151.1-0.6c1.5-4.4,3-8.8,4.5-13.2c3.8-11.7,6.8-23.6,7.9-36
		c2-22.7-3.8-43.5-15.6-62.7c-4.1-6.8-9.1-13-13.7-19.5c-0.6-0.9-1.3-1.7-1.7-2.8c34,12.9,65.4,30.4,94,52.8
		C221,186.6,246.1,214,267.1,245.4z M139.8,167.9c8.9,19,18,38.2,27.1,57.7c1.8-1.6,3.3-3.1,4.9-4.6c-2.6-5.3-5-10.3-7.5-15.3
		c-0.8-1.6-0.7-2.5,0.6-3.7c4.2-3.7,8.3-7.5,12.3-11.4c1.5-1.5,2.6-1.5,4.4-0.5c4.1,2.5,8.4,4.7,12.5,7.2c1.5,0.9,2.6,1,3.8-0.4
		c1-1.1,2.2-2.1,3.6-3.4c-1.3-0.8-2.4-1.4-3.4-2c-16-8.6-32.1-17.3-48.1-25.9c-5.5-3-5.5-3-9.9,1.7C140,167.4,140,167.5,139.8,167.9
		z"/>
	<path class="st1" d="M366.6,61.1c4.4,21.6,6.1,42.7,4.9,64.1c-2.3,41.9-15.1,80-42.3,112.6c-2.1,2.5-4.4,4.9-7.2,8
		c-7.2-63.9-24.2-123.7-57.3-179C299.3,69.7,333,68.5,366.6,61.1z M347.5,133.2c-0.5,1.7-0.9,3.3-1.5,4.9
		c-3.4,8.8-13.8,11.6-20.5,5.1c-2.3-2.2-4.1-5.4-5-8.5c-2.6-8.6-2.5-17.5,0-26.2c0.8-2.6,2.2-5.2,3.9-7.3c6.6-7.8,18-5.7,21.6,3.9
		c0.3,0.7,0.6,1.4,0.8,2.2c2,0,3.8,0,5.7,0c-1.1-10.6-9.8-18.2-19.7-17.1c-7.5,0.8-13.1,4.8-16.1,11.6c-6.1,14-5.7,28.2,1.1,41.8
		c4,8.1,12.9,11.4,21.4,9c7.6-2.1,14.1-11.2,13.9-19.4C351.3,133.2,349.5,133.2,347.5,133.2z"/>
	<path class="st1" d="M353.3,207.7c8.3-16.2,14-33,17.6-50.8c1.2,0.5,2.1,0.8,2.9,1.2c31.3,15.2,62.6,30.4,93.8,45.6
		c1.2,0.6,2.7,1.9,2.9,3.1c3.5,20.1,11.2,38.8,17.8,57.9c5.7,16.6,10.6,33.4,15.9,50.1c0.4,1.1,0.5,2.4,0.9,4.6
		C454,281.9,403.7,244.8,353.3,207.7z"/>
	<path class="st1" d="M370,60.6c8.3-2.3,16.4-4,24.2-6.8c15.9-5.7,31.5-11.9,47.3-18c1.7-0.6,2.7-1.2,4.3,0.5
		c19.6,22.2,39.3,44.4,59,66.6c0.5,0.6,0.9,1.2,1.5,2c-13.4,15.1-24.9,31.4-31.8,50.7c-1.3-0.6-2.3-1-3.3-1.5
		c-30.9-15.4-61.8-30.8-92.8-46.1c-2.6-1.3-3.3-2.8-3.6-5.6c-1.2-13-2.8-26-4.3-39C370.4,62.6,370.2,61.8,370,60.6z"/>
	<path class="st1" d="M124.8,466.1c-12.5-11.2-22.9-22.8-28.1-38.1c-15.5-46.1-13.9-92,2.1-137.6c1.1-3,2.1-6.1,3.1-8.7
		c16.6,5,32.8,9.8,49.5,14.9C142.7,352.5,133.8,408.9,124.8,466.1z"/>
	<path class="st1" d="M285.2,274.5c-60.4,31.7-120.7,26.8-181.9,3.6c0.8-2.2,1.4-4.1,2.1-5.9c2.7-7,5.4-14,8-21
		c0.8-2.3,1.9-2.7,4.2-2.2c28.2,5.5,56.6,8.6,85.3,8.1c21.4-0.4,42.6-2.7,63.5-7.6c1.1-0.3,3.1-0.2,3.5,0.5
		C275,257.8,279.9,265.9,285.2,274.5z"/>
	<path class="st1" d="M317,231.6c0.6,5.2,1.2,10.5,1.7,15.8c0.1,0.8-0.4,2-1.1,2.6c-9,8.6-18.8,16.2-29.8,22.6
		c-4.9-8.2-9.8-16.3-14.5-24.2C287.8,242.9,302.2,237.3,317,231.6z"/>
	<path class="st1" d="M391.6,530.7c-0.1,4.9-4.4,9.1-9.3,9.1c-5,0-9.4-4.5-9.3-9.5c0.1-4.9,4.4-9.1,9.3-9.1
		C387.3,521.3,391.7,525.7,391.6,530.7z"/>
	<path class="st1" d="M208.3,53.4c-5.1,0-9.4-4.4-9.3-9.4c0.1-4.9,4.4-9.1,9.3-9.2c5,0,9.4,4.4,9.3,9.4
		C217.5,49.2,213.2,53.4,208.3,53.4z"/>
	<path class="st1" d="M417,507.3c5,0.3,9,4.7,8.8,9.6c-0.2,5.1-4.8,9.3-9.8,8.9c-5-0.3-9-4.8-8.8-9.6
		C407.4,511.1,411.9,507,417,507.3z"/>
	<path class="st1" d="M95.3,123.6c4.9-0.1,9.3,4.2,9.4,9.1c0.1,5-4.3,9.5-9.4,9.5c-4.9-0.1-9.2-4.4-9.2-9.3
		C86.1,127.9,90.4,123.6,95.3,123.6z"/>
	<path class="st1" d="M525.3,380.1c-5.1,0-9.4-4.4-9.3-9.5c0.1-5,4.3-9.1,9.3-9.1c5.1,0,9.4,4.4,9.3,9.4
		C534.5,376,530.2,380.1,525.3,380.1z"/>
	<path class="st1" d="M418.5,23.7c5,0,9.2,4.1,9.3,9.1c0.1,5-4.2,9.5-9.3,9.5c-5.1,0-9.4-4.4-9.3-9.4
		C409.3,27.8,413.5,23.7,418.5,23.7z"/>
	<path class="st1" d="M501.8,88c0-5.1,4.4-9.4,9.5-9.3c5,0.1,9.1,4.4,9.1,9.3c0,4.9-4.2,9.2-9.1,9.3C506.3,97.4,501.8,93,501.8,88z"
		/>
	<path class="st1" d="M471.3,33.4c0,5-4.1,9.2-9.1,9.2c-5.1,0.1-9.4-4.3-9.4-9.3c0-5.1,4.5-9.4,9.5-9.3
		C467.2,24.2,471.3,28.4,471.3,33.4z"/>
	<path class="st1" d="M358.7,52.1c0,5.1-4.3,9.2-9.5,9.1c-5-0.1-9.1-4.3-9-9.3c0.1-5,4.2-9.1,9.2-9.2
		C354.5,42.8,358.8,47,358.7,52.1z"/>
	<path class="st1" d="M83.5,411.6c-0.1,5.1-4.2,9.1-9.3,9c-5.2,0-9.3-4.3-9.1-9.5c0.2-5,4.4-9,9.5-8.9
		C79.6,402.3,83.5,406.5,83.5,411.6z"/>
	<path class="st1" d="M180.4,508.3c5.1,0,9.2,4.1,9.2,9.2c0,5.2-4.2,9.3-9.4,9.2c-5.1-0.1-9-4.2-9-9.3
		C171.2,512.3,175.3,508.3,180.4,508.3z"/>
	<path class="st1" d="M96.9,449.1c-0.1,5.1-4.2,9.1-9.3,9.1c-5.1,0-9.1-4.1-9.2-9.2c0-5.2,4.2-9.3,9.5-9.2
		C93.1,439.9,97,444,96.9,449.1z"/>
	<path class="st1" d="M102.8,261.8c0,5-4.2,9.2-9.2,9.3c-5.1,0-9.4-4.3-9.3-9.5c0.1-5,4.3-9.2,9.3-9.1
		C98.6,252.6,102.9,256.9,102.8,261.8z"/>
	<path class="st1" d="M489.1,215.5c4.9-0.1,9.3,4,9.4,9c0.2,5.1-3.9,9.5-9.1,9.6c-4.9,0.1-9.2-4-9.4-8.9
		C479.9,220,484,215.7,489.1,215.5z"/>
	<path class="st1" d="M183.7,32.5c0,5.1-4,9.2-9.1,9.2c-5.2,0-9.4-4.3-9.3-9.4c0.1-5,4.3-9.1,9.4-9
		C179.7,23.3,183.7,27.4,183.7,32.5z"/>
	<path class="st1" d="M488.4,150.3c5.1,0,9.4,4.4,9.3,9.5c-0.1,5-4.3,9-9.3,9c-5,0-9.2-4.1-9.3-9.1
		C478.9,154.6,483.3,150.3,488.4,150.3z"/>
	<path class="st1" d="M393.3,44.4c-0.1,5-4.2,9.2-9.1,9.2c-5,0-9.4-4.3-9.4-9.4c0-5.1,4.4-9.3,9.5-9.2
		C389.4,35.2,393.4,39.4,393.3,44.4z"/>
	<path class="st1" d="M510.1,259c0.1,5.1-4.2,9.5-9.3,9.4c-5,0-9.1-4.2-9.2-9.2c-0.1-5.1,4.2-9.5,9.3-9.4
		C505.9,249.8,510,254,510.1,259z"/>
	<path class="st1" d="M459.7,500.2c0,5.2-4.2,9.4-9.4,9.3c-5-0.1-9.1-4.2-9.1-9.2c0-5.2,4.2-9.4,9.3-9.3
		C455.5,491.1,459.6,495.2,459.7,500.2z"/>
	<path class="st1" d="M81.4,334.4c0,5-4.2,9.2-9.2,9.3c-5,0.1-9.2-4.1-9.2-9.1c-0.1-5.2,4.2-9.5,9.3-9.4
		C77.3,325.1,81.4,329.4,81.4,334.4z"/>
	<path class="st1" d="M522.2,322.7c5-0.1,9.2,3.9,9.4,8.9c0.1,5.1-4,9.5-9.1,9.6c-5,0.1-9.2-4-9.4-9
		C512.9,327,517,322.7,522.2,322.7z"/>
	<path class="st1" d="M494.3,130.5c0.1-5,4.1-9.1,9.2-9.1c5.2,0,9.3,4.2,9.2,9.4c-0.1,5.2-4.3,9.2-9.5,9
		C498.1,139.7,494.2,135.6,494.3,130.5z"/>
	<path class="st1" d="M243.2,61.2c-5.1,0-9.3-4-9.4-9c-0.1-5.1,4.3-9.5,9.4-9.4c5,0,9.2,4.2,9.2,9.2C252.4,57,248.3,61.2,243.2,61.2
		z"/>
	<path class="st1" d="M107.3,72.4c-5,0-9.2-4.2-9.3-9.2c0-5.1,4.3-9.4,9.4-9.3c5.1,0.1,9.1,4.3,9,9.3
		C116.4,68.3,112.3,72.4,107.3,72.4z"/>
	<path class="st1" d="M110.1,154.2c5.1-0.1,9.3,3.9,9.4,8.9c0.2,5.1-4.1,9.5-9.3,9.5c-5.1,0-9.2-4-9.2-9.1
		C101,158.5,105.1,154.3,110.1,154.2z"/>
	<path class="st1" d="M513.3,303.6c-5.1,0-9.4-4.3-9.4-9.4c0.1-5,4.2-9.1,9.3-9.1c5.2,0,9.4,4.3,9.4,9.3
		C522.4,299.4,518.2,303.6,513.3,303.6z"/>
	<path class="st1" d="M69.9,363.7c5.1-0.1,9.3,3.9,9.4,9c0.1,5.1-4.2,9.5-9.3,9.5c-5,0-9.1-4.1-9.2-9.2
		C60.8,367.9,64.9,363.8,69.9,363.7z"/>
	<path class="st1" d="M90.7,296.7c-0.1,5-4.3,9.1-9.3,9.1c-5.1,0-9.1-4.1-9.1-9.2c0-5.2,4.2-9.4,9.4-9.3
		C86.7,287.4,90.8,291.7,90.7,296.7z"/>
	<path class="st1" d="M520.4,417.3c-5.2,0-9.4-4.2-9.3-9.4c0.1-5,4.3-9.1,9.3-9.1c5.2,0,9.3,4.2,9.2,9.4
		C529.6,413.4,525.5,417.3,520.4,417.3z"/>
	<path class="st1" d="M83.4,100.1c-5,0-9.3-4-9.4-9c-0.1-5,4-9.3,9-9.4c5.2-0.1,9.6,4.1,9.6,9.2C92.6,95.8,88.4,100.1,83.4,100.1z"
		/>
	<path class="st1" d="M518.2,446.6c-0.1,5.2-4.4,9.2-9.6,8.9c-5-0.2-9-4.5-8.8-9.5c0.1-5.1,4.6-9.2,9.7-9
		C514.5,437.3,518.4,441.6,518.2,446.6z"/>
	<path class="st1" d="M495.9,60.5c0,5.1-4.3,9.4-9.4,9.3c-5-0.1-9-4.3-9-9.3c0-5.1,4.3-9.4,9.4-9.3
		C491.9,51.3,495.9,55.5,495.9,60.5z"/>
	<path class="st1" d="M483,487.1c-5,0-9.2-4.1-9.3-9.1c-0.1-5,4.2-9.4,9.3-9.4c5,0,9.2,4.1,9.3,9.1
		C492.4,482.8,488.1,487.1,483,487.1z"/>
	<path class="st1" d="M122.5,194.8c0,5.1-4,9.2-9,9.3c-5.1,0.1-9.5-4.2-9.4-9.3c0-5,4.2-9.1,9.2-9.1
		C118.5,185.7,122.5,189.7,122.5,194.8z"/>
	<path class="st1" d="M314.4,46.8c5,0,9.2,4.2,9.2,9.2c0,5-4.2,9.2-9.2,9.2c-5.2,0-9.5-4.3-9.4-9.4
		C305.1,50.9,309.4,46.8,314.4,46.8z"/>
	<path class="st1" d="M106.5,237.2c-5.1,0-9.2-4.1-9.2-9.2c0-5.2,4.3-9.3,9.5-9.2c5.1,0.1,9,4.3,9,9.4
		C115.7,233.3,111.6,237.2,106.5,237.2z"/>
	<path class="st1" d="M214.9,540.2c-5,0-9.2-4.2-9.2-9.2c0-5,4.2-9.2,9.2-9.2c5.1,0,9.5,4.3,9.4,9.4
		C224.2,536.2,220,540.3,214.9,540.2z"/>
	<path class="st1" d="M358.1,543.7c0.1,5-4,9.2-9,9.3c-5.2,0.1-9.5-4-9.6-9.1c-0.1-5,4-9.2,9-9.4C353.5,534.4,358,538.7,358.1,543.7
		z"/>
	<path class="st1" d="M257.5,544.7c0,5.1-4,9.3-9,9.4c-5.1,0.1-9.4-4.2-9.4-9.4c0-5,4.2-9.2,9.2-9.2
		C253.3,535.5,257.4,539.7,257.5,544.7z"/>
	<path class="st1" d="M327.3,560.9c0,5-4.1,9.2-9.1,9.3c-5.1,0.1-9.4-4.2-9.3-9.4c0.1-5,4.3-9.2,9.3-9.1
		C323.1,551.7,327.3,555.8,327.3,560.9z"/>
	<path class="st1" d="M130.9,44.4c-5-0.1-9.2-4.3-9.2-9.3c0-5.1,4.4-9.3,9.6-9.2c5,0.1,9.1,4.5,9,9.4
		C140.2,40.4,135.9,44.4,130.9,44.4z"/>
	<path class="st1" d="M483.8,182.5c5,0,9.2,4.2,9.2,9.2c0.1,5-4.3,9.3-9.4,9.3c-5,0-9.2-4.2-9.2-9.1
		C474.3,186.8,478.7,182.5,483.8,182.5z"/>
	<path class="st1" d="M154.6,500.9c0,5.1-4,9.3-9,9.4c-5.1,0.1-9.4-4.1-9.4-9.3c0-5,4.2-9.2,9.2-9.2
		C150.4,491.7,154.6,495.8,154.6,500.9z"/>
	<path class="st1" d="M278.9,46.5c5,0,9.2,4.1,9.3,9.1c0.1,5.1-4.3,9.5-9.4,9.4c-5-0.1-9.1-4.3-9.1-9.3
		C269.8,50.7,273.9,46.5,278.9,46.5z"/>
	<path class="st1" d="M122.5,479.2c0,5.2-3.9,9.2-9,9.3c-5.2,0.1-9.5-4.1-9.4-9.3c0-5,4.2-9.1,9.3-9.1
		C118.4,470,122.5,474.1,122.5,479.2z"/>
	<path class="st1" d="M277.8,571c-5-0.1-9.2-4.4-9.1-9.3c0.1-5,4.3-9.1,9.3-9.1c5.2,0,9.4,4.4,9.2,9.5
		C287.1,567.2,282.9,571.1,277.8,571z"/>
	<path class="st0" d="M265.6,134.3c-5.6,3.9-5.6,3.9-10.4-0.3c-2.8-2.4-5.6-4.8-8.3-7.4c-1.4-1.4-2.5-1.3-4.1-0.3
		c-4.6,2.9-9.3,5.8-14.1,8.4c-1.8,1-2.2,2.1-1.7,4c1,3.7,1.9,7.4,2.8,11c1.4,5.7,1.4,5.7-4.5,8.3c-2-8.6-4-17.1-6-25.7
		c-2.7-11.4-5.2-22.9-8-34.3c-0.5-2.1,0.4-2.9,1.9-3.6c1.6-0.7,2.8-3,5.2-0.9c15.5,13.3,31.1,26.6,46.7,39.9
		C265.3,133.7,265.4,133.9,265.6,134.3z M225,129.8c5.2-3.1,10.1-6,15.2-9.1c-7.8-7-15.2-13.7-22.8-20.6
		C220,110.1,222.4,119.7,225,129.8z"/>
	<path class="st0" d="M139.8,167.9c0.2-0.4,0.2-0.5,0.3-0.6c4.4-4.7,4.4-4.7,9.9-1.7c16,8.6,32.1,17.3,48.1,25.9
		c1.1,0.6,2.1,1.2,3.4,2c-1.3,1.3-2.6,2.2-3.6,3.4c-1.2,1.4-2.3,1.2-3.8,0.4c-4.1-2.4-8.4-4.7-12.5-7.2c-1.7-1-2.9-1-4.4,0.5
		c-4,3.9-8.1,7.7-12.3,11.4c-1.3,1.2-1.4,2.2-0.6,3.7c2.6,5,4.9,10,7.5,15.3c-1.6,1.5-3.2,3-4.9,4.6
		C157.8,206.1,148.7,186.9,139.8,167.9z M146.9,170.2c4.7,9.4,9.1,18.3,13.7,27.4c4.4-4.1,8.5-7.9,12.9-12
		C164.5,180.4,155.8,175.4,146.9,170.2z"/>
	<path class="st0" d="M347.5,133.2c2,0,3.9,0,5.7,0c0.3,8.1-6.3,17.2-13.9,19.4c-8.6,2.4-17.4-0.9-21.4-9
		c-6.8-13.6-7.3-27.8-1.1-41.8c3-6.8,8.6-10.9,16.1-11.6c9.9-1,18.5,6.5,19.7,17.1c-1.9,0-3.7,0-5.7,0c-0.3-0.7-0.6-1.5-0.8-2.2
		c-3.6-9.5-15-11.7-21.6-3.9c-1.8,2.1-3.2,4.7-3.9,7.3c-2.5,8.7-2.6,17.5,0,26.2c0.9,3.1,2.7,6.3,5,8.5c6.7,6.5,17.1,3.7,20.5-5.1
		C346.6,136.5,347,134.8,347.5,133.2z"/>
	<path class="st1" d="M225,129.8c-2.6-10.1-5.1-19.7-7.6-29.6c7.6,6.9,15,13.5,22.8,20.6C235.1,123.7,230.3,126.6,225,129.8z"/>
	<path class="st1" d="M146.9,170.2c9,5.2,17.6,10.2,26.6,15.4c-4.4,4.1-8.5,7.9-12.9,12C156,188.4,151.5,179.5,146.9,170.2z"/>
</g>
</svg>
