<?xml version="1.0" encoding="utf-8"?>
<!-- Generator: Adobe Illustrator 23.0.1, SVG Export Plug-In . SVG Version: 6.00 Build 0)  -->
<svg version="1.1" id="Layer_1" xmlns="http://www.w3.org/2000/svg" xmlns:xlink="http://www.w3.org/1999/xlink" x="0px" y="0px"
	 viewBox="0 0 595.3 595.3" style="enable-background:new 0 0 595.3 595.3;" xml:space="preserve">
<style type="text/css">
	.st0{fill:#CF1E28;}
	.st1{fill:#FFFFFF;}
	.st2{fill-rule:evenodd;clip-rule:evenodd;fill:#CF1E28;}
</style>
<path class="st0" d="M567.3,282.8L567.3,282.8L567.3,282.8C567.3,282.8,567.3,282.8,567.3,282.8V3.4H28.1v287.9
	c-5.1,90.1,80.4,154.6,176.3,226.9c30.1,22.7,61.1,46.1,90.6,71.3l0,0c0,0,0,0,0.1,0.1l0,0c-0.1-0.1-0.5-0.4,0,0l2.6,2.2l2.7-2.2
	c22.8-18.9,47.3-37.2,72-55.7C469.5,461.1,569.1,386.5,567.3,282.8L567.3,282.8z"/>
<path class="st1" d="M559.1,11.7v271.1v0.1c1.7,99.5-96.2,172.9-191.6,244.4c-23.9,17.9-47.7,35.8-69.6,53.7
	c-29-24.6-59.2-47.3-88.4-69.4c-94-70.9-177.8-134.2-173-219.9v-0.2V11.7H559.1L559.1,11.7z"/>
<path class="st2" d="M54.3,116.8v179.1c-12.8,88.5,140.2,179.6,241.5,264.3c116-91.6,248.2-175.7,245.9-266.5l0-176.9H54.3
	L54.3,116.8z M413.3,162.7H206.6c-36.8,2.2-56,21.8-54.4,59l0,139.8c-2.9,38.6,14.5,56.8,52.2,54.6h115.3l19.6-21.8l4.4,21.8h74
	V289.4l13.1-28.4H271.9V309h50v47.3c10.2,28.3-80.4,30-71.8,0.8l0-128.9c-2.5-20.5,9.5-24.9,28.3-21.8h111l23.9,17.5L413.3,162.7
	L413.3,162.7z"/>
<path class="st2" d="M514,35l0,60.1h22.3V35H514L514,35z M132.8,35h22.1l0,45.7c0.2,3.4,1.8,5,5,4.7l21.8,0.3c3.9,0.5,4.8-2.3,4.4-5
	V35h11.5l0,45.7c0.6,10.6-5.2,14.8-16.4,13.5h-32.8c-9.6,0.4-15.5-2.8-15.6-13.5L132.8,35L132.8,35z M285.3,34.7v59.5l22.9,0.1
	l0-23.3c2.2-0.1,6.5-1,8.1,4.4l10.2,18.8h24.6L335,70.5c19.7-0.3,17-37.5,0-35.7H285.3L285.3,34.7z M436.9,35l0,60.1h9.8l0-42.8
	l23.8,42.8h30.5l0-60.1h-9.8l0,46.1L466.4,35H436.9L436.9,35z M228.7,35l-26.5,59.2h13.1l7.7-17.4h22.7l8.5,17.4h27L252.5,35H228.7
	L228.7,35z M225.1,70.5l7.2-16.1h4.4l6.9,16.1C243.6,70.5,225.4,70.5,225.1,70.5L225.1,70.5z M380.3,35.8l-26.5,59.2H367l7.7-17.4
	h22.7l8.5,17.4h27l-28.7-59.2H380.3L380.3,35.8z M376.7,71.3l7.2-16.1h4.4l6.9,16.1C395.2,71.3,377,71.3,376.7,71.3L376.7,71.3z
	 M307.6,45.3v16.6h14.9c8.1-4.2,8.3-14.4,0-16.6H307.6L307.6,45.3z M67.5,35c-3.6-0.8-9.1,0.2-8.5,6.9l0,44.7
	c-0.2,4,0.4,7.6,6.9,8.5h51.6c4.9,0,7-2.4,6.4-7.3v-26l-35.5-0.2v6.2l11.5,0.2v17.7l-17.2-0.2c-2.7,0.6-5.7,0.7-4.8-6v-32
	c-0.9-2.7,0.9-4.1,5.5-4.4l40.6,0.2V35H67.5L67.5,35z"/>
</svg>
