<?xml version="1.0" encoding="utf-8"?>
<!-- Generator: Adobe Illustrator 23.0.1, SVG Export Plug-In . SVG Version: 6.00 Build 0)  -->
<svg version="1.1" id="Layer_1" xmlns="http://www.w3.org/2000/svg" xmlns:xlink="http://www.w3.org/1999/xlink" x="0px" y="0px"
	 viewBox="0 0 595.3 595.3" style="enable-background:new 0 0 595.3 595.3;" xml:space="preserve">
<style type="text/css">
	.st0{fill-rule:evenodd;clip-rule:evenodd;fill:#E91B25;}
	.st1{fill-rule:evenodd;clip-rule:evenodd;fill:#FFFFFF;}
	.st2{fill-rule:evenodd;clip-rule:evenodd;fill:#EFB40E;}
	.st3{clip-path:url(#SVGID_2_);}
	.st4{fill:#F4D787;}
	.st5{fill-rule:evenodd;clip-rule:evenodd;fill:#E5BC02;}
	.st6{fill:#E91B25;stroke:#E91B25;stroke-width:0.75;stroke-miterlimit:10;}
</style>
<g>
	<path class="st0" d="M296.9,12.4L296.9,12.4c0.1,0,0.1,0,0.2,0c52.6,0,97.4,12,143.1,38.3c45.6,26.3,78.4,59.1,104.7,104.7
		c26.3,45.6,38.3,90.4,38.3,143.1l0,0l0,0c0,52.7-12,97.5-38.3,143.1c-26.3,45.6-59.1,78.4-104.7,104.7
		c-45.6,26.3-90.4,38.3-143.1,38.3c-52.7,0-97.5-12-143.1-38.3c-45.6-26.3-78.4-59.1-104.7-104.7C22.9,396,10.9,351.2,10.9,298.5
		c0-52.6,12-97.4,38.3-143.1c26.3-45.6,59.1-78.4,104.7-104.7C199.5,24.5,244.3,12.4,296.9,12.4L296.9,12.4z"/>
	<path class="st1" d="M297,12.4c158.1,0,286.3,128.1,286.3,286.1c0,158.1-128.1,286.3-286.3,286.3c-158,0-286.1-128.1-286.1-286.3
		C10.9,140.5,138.9,12.4,297,12.4L297,12.4z M297,12.4L297,12.4L297,12.4z M297,18.4c154.8,0,280.2,125.4,280.2,280.1
		c0,154.8-125.4,280.2-280.2,280.2c-154.7,0-280.1-125.4-280.1-280.2C16.8,143.8,142.3,18.4,297,18.4L297,18.4z"/>
	<path class="st1" d="M296.9,94.2L296.9,94.2c0.1,0,0.1,0,0.2,0c37.6,0,69.5,8.5,102.1,27.4c32.5,18.8,56,42.2,74.7,74.7
		c18.9,32.6,27.4,64.6,27.4,102.1l0,0l0,0c0,37.6-8.5,69.6-27.4,102.2c-18.8,32.5-42.2,56-74.7,74.7
		c-32.6,18.9-64.6,27.4-102.1,27.4c-37.6,0-69.6-8.5-102.2-27.4c-32.5-18.8-56-42.2-74.7-74.7c-18.9-32.6-27.4-64.6-27.4-102.2
		c0-37.6,8.5-69.5,27.4-102.1c18.8-32.5,42.2-56,74.7-74.7C227.4,102.9,259.3,94.2,296.9,94.2L296.9,94.2z"/>
	<path class="st2" d="M297.1,10.8c159,0,287.9,128.8,287.9,287.9S456.2,586.6,297.1,586.6S9.2,457.7,9.2,298.7
		S138.1,10.8,297.1,10.8L297.1,10.8z M297.1,10.8L297.1,10.8L297.1,10.8z M297.1,14.6c156.9,0,284.1,127.1,284.1,284.1
		S454.1,582.8,297.1,582.8S13,455.6,13,298.7S140.2,14.6,297.1,14.6L297.1,14.6z"/>
	<path class="st1" d="M42.5,322l-0.7-30.3l7.9-0.2l0.3,10.2l24.3-0.6l0.2,9.9l-24.3,0.6l0.2,10.2L42.5,322L42.5,322z M42.5,322
		L42.5,322L42.5,322z M58,285.3c-5.3-0.7-9.2-2.6-11.6-6c-2.6-3.3-3.5-7.5-2.9-12.7c0.7-5.3,2.6-9.2,5.9-11.8
		c3.2-2.5,7.4-3.5,12.6-2.9c3.7,0.6,6.8,1.6,8.9,3.2c2.3,1.6,3.9,3.6,4.9,6.1c1.1,2.6,1.3,5.7,0.9,9.2c-0.5,3.6-1.5,6.6-2.9,8.8
		c-1.5,2.3-3.6,4-6.2,5C65,285.3,61.8,285.7,58,285.3L58,285.3z M58,285.3L58,285.3L58,285.3z M59.3,275.3c3.3,0.5,5.7,0.2,7.2-0.9
		c1.6-1,2.5-2.6,2.7-4.7c0.3-2.1-0.2-3.8-1.4-5.2c-1.2-1.3-3.6-2.3-7.2-2.6c-3-0.4-5.4-0.1-6.8,0.9c-1.6,1.1-2.5,2.6-2.7,4.7
		c-0.3,2,0.2,3.6,1.5,5C53.8,274,56,274.9,59.3,275.3L59.3,275.3z M59.3,275.3L59.3,275.3L59.3,275.3z M48.3,237.1l4.2-12.5
		l20.3,1.6l-17-11l4.2-12.4L90.6,213l-2.6,7.8l-23.3-7.9l21.3,13.9l-2.3,7l-25.4-1.9l23.4,7.9l-2.6,7.7L48.3,237.1L48.3,237.1z
		 M48.3,237.1L48.3,237.1L48.3,237.1z M65.7,190.9l8.5-16.7c1.5-2.8,3.3-4.5,5.4-5.3c2.2-0.9,4.2-0.7,6.3,0.3
		c1.6,0.9,2.9,2.2,3.5,3.9c0.5,1.1,0.6,2.5,0.4,4c1.6-1.8,3.2-2.9,4.9-3.2c1.7-0.4,3.5-0.1,5.3,0.9c1.5,0.8,2.6,1.8,3.5,3.1
		c0.9,1.3,1.3,2.7,1.4,4.3c0,1-0.2,2.3-0.9,3.9c-0.7,2.1-1.2,3.5-1.6,4.2l-7.8,15.3L65.7,190.9L65.7,190.9z M65.7,190.9L65.7,190.9
		L65.7,190.9z M81.5,187.7l2-3.9c0.7-1.4,0.9-2.5,0.8-3.3c-0.2-0.8-0.8-1.5-1.7-1.9c-0.9-0.5-1.6-0.5-2.3-0.2
		c-0.8,0.3-1.5,1.2-2.2,2.5l-2,4L81.5,187.7L81.5,187.7z M81.5,187.7L81.5,187.7L81.5,187.7z M92.7,193.4l2.3-4.5
		c0.8-1.6,1.1-2.8,0.9-3.6c-0.2-0.9-0.8-1.6-1.7-2.1c-0.9-0.5-1.6-0.5-2.5-0.1c-0.9,0.3-1.6,1.2-2.5,2.9l-2.3,4.5L92.7,193.4
		L92.7,193.4z M92.7,193.4L92.7,193.4L92.7,193.4z M86.5,153.6l16.5-21l5.4,4.3L98.1,150l4,3.2l9.5-12.2l5.1,4.1l-9.5,12.2l5,3.9
		l10.6-13.5l5.7,4.5l-16.8,21.4L86.5,153.6L86.5,153.6z M86.5,153.6L86.5,153.6L86.5,153.6z M111.1,123.4l6.8-6.4l21,4.6l-12.3-13
		l6.8-6.5l22.3,23.4l-6.8,6.5l-21-4.5l12.3,12.8l-6.8,6.4L111.1,123.4L111.1,123.4z M111.1,123.4L111.1,123.4L111.1,123.4z
		 M155,112.3l7.6-5.6c1,1.2,2,1.9,2.9,2.3c1.6,0.5,3.2,0.3,4.9-0.7c1.2-0.8,1.9-1.6,2.2-2.6c0.3-0.9,0.2-1.8-0.2-2.6
		c-0.5-0.7-1.2-1.2-2.2-1.3c-1-0.2-2.8,0.2-5.4,1.2c-4.2,1.6-7.5,2.2-10,1.8c-2.4-0.4-4.3-1.6-5.7-3.7c-0.9-1.4-1.3-2.9-1.3-4.7
		c0.1-1.8,0.6-3.5,1.8-5.3c1.2-1.7,3.2-3.5,6.1-5.4c3.4-2.2,6.5-3.3,9.2-3.1c2.6,0.1,5.1,1.5,7.3,4l-7.7,5.6c-1-1.2-2-1.7-3-1.9
		c-1.1-0.2-2.2,0.2-3.3,0.9c-1,0.6-1.6,1.3-1.9,2c-0.2,0.8-0.2,1.4,0.2,2c0.3,0.5,0.8,0.7,1.4,0.8c0.6,0.1,1.7-0.2,3.4-0.8
		c4.2-1.6,7.3-2.5,9.5-2.6c2.1-0.2,3.9,0,5.4,0.8c1.5,0.7,2.7,1.9,3.6,3.3c1.2,1.7,1.7,3.6,1.7,5.7c-0.1,2.1-0.7,4-1.9,5.9
		c-1.2,1.9-3.2,3.6-5.8,5.4c-4.7,2.9-8.5,4.1-11.4,3.5C159.4,116.6,156.9,115,155,112.3L155,112.3z M155,112.3L155,112.3L155,112.3z
		 M178,72.5l24.4-11l2.8,6.3l-15.2,6.9l2.2,4.7l14-6.4l2.7,6l-14,6.4l2.6,5.8l15.7-7.1l3,6.7l-24.8,11.2L178,72.5L178,72.5z
		 M178,72.5L178,72.5L178,72.5z M229.4,52.3l24.1-5.5l1.6,6.8l-14.3,3.3l1.3,5.5l12.2-2.8l1.5,6.4l-12.2,2.8l2.9,12.9l-9.8,2.3
		L229.4,52.3L229.4,52.3z M229.4,52.3L229.4,52.3L229.4,52.3z M286.5,43.3l9.9-0.7l1.5,19.2c0.2,1.9,0,3.7-0.5,5.4
		c-0.5,1.7-1.2,3.3-2.5,4.7c-1.2,1.3-2.4,2.3-3.7,2.9c-1.9,0.9-4.2,1.4-6.9,1.6c-1.6,0.1-3.3,0.1-5.1,0c-1.9-0.1-3.5-0.4-4.7-0.9
		c-1.3-0.5-2.6-1.4-3.6-2.5c-1.2-1.2-1.9-2.3-2.4-3.6c-0.8-2-1.2-3.8-1.3-5.4L265.6,45l9.9-0.8l1.5,19.6c0.2,1.8,0.8,3.1,1.8,4
		c1.1,0.9,2.4,1.2,4.2,1.2c1.7-0.2,2.9-0.8,3.9-1.8c0.9-1,1.2-2.5,1.2-4.3L286.5,43.3L286.5,43.3z M286.5,43.3L286.5,43.3
		L286.5,43.3z M309,42.9l30.1,3.8l-1,7.9L328,53.4l-3.1,24.1l-9.9-1.2l3-24.1L308,50.9L309,42.9L309,42.9z M309,42.9L309,42.9
		L309,42.9z M350,48.4l25.7,7.3l-1.9,6.7l-16.1-4.6l-1.4,5l14.9,4.2l-1.8,6.4L354.6,69l-1.7,6.1l16.5,4.7l-2,7l-26.2-7.4L350,48.4
		L350,48.4z M350,48.4L350,48.4L350,48.4z M387.2,59.2l17,7.8c2.9,1.2,4.7,2.9,5.6,5c0.9,2.1,0.9,4.2-0.1,6.2c-0.8,1.8-2,3-3.6,3.8
		c-1.1,0.5-2.5,0.6-4,0.5c1.9,1.4,3,3,3.5,4.7c0.4,1.7,0.2,3.5-0.6,5.4c-0.7,1.6-1.7,2.7-2.9,3.6c-1.2,0.9-2.6,1.4-4.2,1.6
		c-1,0.2-2.3-0.1-4-0.5c-2.2-0.7-3.6-1.2-4.2-1.5l-15.8-7.1L387.2,59.2L387.2,59.2z M387.2,59.2L387.2,59.2L387.2,59.2z M391.1,74.9
		l4,1.8c1.4,0.6,2.5,0.9,3.3,0.6c0.8-0.3,1.4-0.9,1.8-1.8c0.4-0.9,0.5-1.6,0.1-2.4c-0.3-0.7-1.2-1.4-2.6-2l-4-1.8L391.1,74.9
		L391.1,74.9z M391.1,74.9L391.1,74.9L391.1,74.9z M385.8,86.4l4.7,2.1c1.6,0.8,2.8,0.9,3.7,0.7c0.9-0.2,1.6-0.9,1.9-1.8
		c0.4-0.9,0.4-1.7,0-2.6c-0.4-0.8-1.4-1.6-3-2.3l-4.6-2.1L385.8,86.4L385.8,86.4z M385.8,86.4L385.8,86.4L385.8,86.4z M414.6,90.2
		c2.9-4.4,6.3-7.1,10.5-8c4-0.9,8.3,0.1,12.7,2.9c4.6,2.9,7.3,6.4,8.1,10.3c0.9,4-0.1,8.2-2.9,12.6c-2,3.2-4.2,5.5-6.6,6.8
		c-2.4,1.4-5,1.9-7.7,1.8c-2.7-0.2-5.7-1.2-8.7-3.2c-3.1-2-5.4-4.1-6.7-6.4c-1.4-2.3-2-4.9-1.9-7.8
		C411.5,96.4,412.6,93.4,414.6,90.2L414.6,90.2z M414.6,90.2L414.6,90.2L414.6,90.2z M423,95.6c-1.7,2.7-2.5,5-2.3,6.8
		c0.3,1.9,1.2,3.3,3,4.5c1.9,1.2,3.6,1.5,5.4,0.9c1.7-0.5,3.6-2.3,5.5-5.4c1.6-2.6,2.3-4.7,2-6.6c-0.2-1.9-1.2-3.3-3-4.5
		c-1.7-1.1-3.5-1.3-5.3-0.8C426.7,91.2,424.9,92.9,423,95.6L423,95.6z M423,95.6L423,95.6L423,95.6z M461.7,102.9l7.2,6.8
		l-16.8,17.7l11.3,10.8l-5.5,5.7l-18.5-17.6L461.7,102.9L461.7,102.9z M461.7,102.9L461.7,102.9L461.7,102.9z M495.3,170.2l2.9,8.6
		c-2.3,0.9-4.6,1.4-6.6,1.3c-2.1-0.1-4-0.6-5.8-1.7c-1.7-1-3.5-2.7-5.1-5.1c-2-2.8-3.3-5.4-3.8-7.8c-0.4-2.4-0.1-5,1.1-7.8
		c1.2-2.8,3.3-5.4,6.6-7.7c4.3-3.1,8.5-4.3,12.5-3.6c4,0.6,7.5,3.1,10.6,7.3c2.3,3.3,3.5,6.4,3.6,9.3c0,2.8-1.1,5.7-3.2,8.6
		l-6.7-6.1c0.5-0.9,1-1.5,1.2-2c0.3-0.9,0.4-1.8,0.2-2.7c-0.2-0.9-0.5-1.8-1.1-2.6c-1.3-1.9-3-2.7-5.2-2.6c-1.6,0-3.6,0.9-6,2.6
		c-2.9,2-4.6,3.9-5,5.6c-0.5,1.6-0.2,3.3,1,4.9c1.1,1.6,2.4,2.4,3.8,2.6C491.7,171.2,493.3,170.9,495.3,170.2L495.3,170.2z
		 M495.3,170.2L495.3,170.2L495.3,170.2z M521.2,176.1l4.5,8.8L504,196l7.1,13.9l-7.1,3.6l-11.7-22.7L521.2,176.1L521.2,176.1z
		 M521.2,176.1L521.2,176.1L521.2,176.1z M542.8,229.5l2.7,9.5l-18.6,5.3c-1.8,0.5-3.6,0.8-5.4,0.6c-1.8-0.1-3.4-0.6-5-1.5
		c-1.6-0.9-2.7-1.9-3.6-3.1c-1.2-1.6-2.2-3.8-2.9-6.4c-0.4-1.5-0.8-3.2-1.1-5c-0.3-1.8-0.3-3.4,0-4.8c0.3-1.4,0.9-2.7,1.8-4
		c0.9-1.3,1.9-2.3,2.9-3.1c1.8-1.1,3.5-1.9,5-2.3l18.5-5.3l2.7,9.6l-18.9,5.4c-1.7,0.5-2.9,1.3-3.6,2.5c-0.7,1.2-0.8,2.7-0.3,4.3
		c0.5,1.6,1.3,2.8,2.5,3.5c1.2,0.6,2.7,0.8,4.4,0.2L542.8,229.5L542.8,229.5z M542.8,229.5L542.8,229.5L542.8,229.5z M548.6,251.7
		l2.3,18.6c0.4,3.1-0.1,5.6-1.4,7.5c-1.3,1.8-3.1,2.9-5.4,3.2c-1.9,0.2-3.6-0.2-5-1.2c-1-0.7-1.9-1.7-2.6-3.2
		c-0.2,2.4-1,4.2-2.2,5.4c-1.2,1.2-2.9,2-4.9,2.3c-1.6,0.2-3.2,0.1-4.7-0.5c-1.4-0.6-2.6-1.6-3.5-2.8c-0.6-0.8-1.1-1.9-1.6-3.6
		c-0.5-2.2-0.9-3.6-1-4.3l-2.2-17.1L548.6,251.7L548.6,251.7z M548.6,251.7L548.6,251.7L548.6,251.7z M537.3,263.3l0.5,4.3
		c0.2,1.6,0.6,2.6,1.2,3.1c0.6,0.5,1.4,0.8,2.4,0.6c0.9-0.1,1.6-0.5,2.1-1.2c0.5-0.7,0.5-1.8,0.4-3.3l-0.5-4.4L537.3,263.3
		L537.3,263.3z M537.3,263.3L537.3,263.3L537.3,263.3z M524.7,264.9l0.7,5c0.2,1.7,0.6,2.9,1.3,3.5c0.7,0.6,1.6,0.9,2.6,0.8
		c0.9-0.2,1.7-0.6,2.2-1.4c0.5-0.7,0.6-2,0.4-3.7l-0.6-5L524.7,264.9L524.7,264.9z M524.7,264.9L524.7,264.9L524.7,264.9z
		 M552.4,293.2l-0.7,26.7l-6.8-0.2l0.4-16.7l-5.1-0.1l-0.4,15.4l-6.6-0.2l0.4-15.4l-6.4-0.2l-0.5,17.2l-7.3-0.2l0.7-27.2
		L552.4,293.2L552.4,293.2z"/>
	<g>
		<defs>
			<path id="SVGID_1_" d="M296.9,94.2L296.9,94.2c0.1,0,0.1,0,0.2,0c37.6,0,69.5,8.5,102.1,27.4c32.5,18.8,56,42.2,74.7,74.7
				c18.9,32.6,27.4,64.6,27.4,102.1l0,0l0,0c0,37.6-8.5,69.6-27.4,102.2c-18.8,32.5-42.2,56-74.7,74.7
				c-32.6,18.9-64.6,27.4-102.1,27.4c-37.6,0-69.6-8.5-102.2-27.4c-32.5-18.8-56-42.2-74.7-74.7c-18.9-32.6-27.4-64.6-27.4-102.2
				c0-37.6,8.5-69.5,27.4-102.1c18.8-32.5,42.2-56,74.7-74.7C227.4,102.9,259.3,94.2,296.9,94.2L296.9,94.2z"/>
		</defs>
		<clipPath id="SVGID_2_">
			<use xlink:href="#SVGID_1_"  style="overflow:visible;"/>
		</clipPath>
		<g class="st3">
			<g>
				
					<rect x="86.7" y="205.4" transform="matrix(0.788 -0.6157 0.6157 0.788 -255.392 147.9282)" class="st4" width="0.9" height="478.9"/>
			</g>
			<g>
				
					<rect x="94.7" y="199.1" transform="matrix(0.788 -0.6157 0.6157 0.788 -249.7845 151.5696)" class="st4" width="0.9" height="478.9"/>
			</g>
			<g>
				
					<rect x="102.8" y="192.7" transform="matrix(0.788 -0.6157 0.6157 0.788 -244.177 155.2111)" class="st4" width="0.9" height="478.9"/>
			</g>
			<g>
				
					<rect x="110.9" y="186.4" transform="matrix(0.788 -0.6157 0.6157 0.788 -238.5695 158.8526)" class="st4" width="0.9" height="478.9"/>
			</g>
			<g>
				
					<rect x="119" y="180.1" transform="matrix(0.788 -0.6157 0.6157 0.788 -232.962 162.4941)" class="st4" width="0.9" height="478.9"/>
			</g>
			<g>
				
					<rect x="127.1" y="173.8" transform="matrix(0.788 -0.6157 0.6157 0.788 -227.3545 166.1355)" class="st4" width="0.9" height="478.9"/>
			</g>
			<g>
				
					<rect x="135.2" y="167.4" transform="matrix(0.788 -0.6157 0.6157 0.788 -221.747 169.777)" class="st4" width="0.9" height="478.9"/>
			</g>
			<g>
				
					<rect x="143.3" y="161.1" transform="matrix(0.788 -0.6157 0.6157 0.788 -216.1395 173.4185)" class="st4" width="0.9" height="478.9"/>
			</g>
			<g>
				
					<rect x="151.4" y="154.8" transform="matrix(0.788 -0.6157 0.6157 0.788 -210.532 177.06)" class="st4" width="0.9" height="478.9"/>
			</g>
			<g>
				
					<rect x="159.5" y="148.5" transform="matrix(0.788 -0.6157 0.6157 0.788 -204.9245 180.7015)" class="st4" width="0.9" height="478.9"/>
			</g>
			<g>
				
					<rect x="167.6" y="142.2" transform="matrix(0.788 -0.6157 0.6157 0.788 -199.3165 184.3432)" class="st4" width="0.9" height="478.9"/>
			</g>
			<g>
				
					<rect x="175.7" y="135.8" transform="matrix(0.788 -0.6157 0.6157 0.788 -193.709 187.9847)" class="st4" width="0.9" height="478.9"/>
			</g>
			<g>
				
					<rect x="183.7" y="129.5" transform="matrix(0.788 -0.6157 0.6157 0.788 -188.1015 191.6262)" class="st4" width="0.9" height="478.9"/>
			</g>
			<g>
				
					<rect x="191.8" y="123.2" transform="matrix(0.788 -0.6157 0.6157 0.788 -182.494 195.2677)" class="st4" width="0.9" height="478.9"/>
			</g>
			<g>
				
					<rect x="199.9" y="116.9" transform="matrix(0.788 -0.6157 0.6157 0.788 -176.8865 198.9092)" class="st4" width="0.9" height="478.9"/>
			</g>
			<g>
				
					<rect x="208" y="110.5" transform="matrix(0.788 -0.6157 0.6157 0.788 -171.2789 202.5506)" class="st4" width="0.9" height="478.9"/>
			</g>
			<g>
				
					<rect x="216.1" y="104.2" transform="matrix(0.788 -0.6157 0.6157 0.788 -165.6714 206.1921)" class="st4" width="0.9" height="478.9"/>
			</g>
			<g>
				
					<rect x="224.2" y="97.9" transform="matrix(0.788 -0.6157 0.6157 0.788 -160.0639 209.8336)" class="st4" width="0.9" height="478.9"/>
			</g>
			<g>
				
					<rect x="232.3" y="91.6" transform="matrix(0.788 -0.6157 0.6157 0.788 -154.4565 213.4751)" class="st4" width="0.9" height="478.9"/>
			</g>
			<g>
				
					<rect x="240.4" y="85.3" transform="matrix(0.788 -0.6157 0.6157 0.788 -148.8489 217.1165)" class="st4" width="0.9" height="478.9"/>
			</g>
			<g>
				
					<rect x="248.5" y="78.9" transform="matrix(0.788 -0.6157 0.6157 0.788 -143.241 220.7583)" class="st4" width="0.9" height="478.9"/>
			</g>
			<g>
				
					<rect x="256.6" y="72.6" transform="matrix(0.788 -0.6157 0.6157 0.788 -137.6335 224.3998)" class="st4" width="0.9" height="478.9"/>
			</g>
			<g>
				
					<rect x="264.7" y="66.3" transform="matrix(0.788 -0.6157 0.6157 0.788 -132.026 228.0413)" class="st4" width="0.9" height="478.9"/>
			</g>
			<g>
				
					<rect x="272.8" y="60" transform="matrix(0.788 -0.6157 0.6157 0.788 -126.4184 231.6828)" class="st4" width="0.9" height="478.9"/>
			</g>
			<g>
				
					<rect x="280.8" y="53.6" transform="matrix(0.788 -0.6157 0.6157 0.788 -120.8109 235.3242)" class="st4" width="0.9" height="478.9"/>
			</g>
			<g>
				
					<rect x="288.9" y="47.3" transform="matrix(0.788 -0.6157 0.6157 0.788 -115.2034 238.9657)" class="st4" width="0.9" height="478.9"/>
			</g>
			<g>
				
					<rect x="297" y="41" transform="matrix(0.788 -0.6157 0.6157 0.788 -109.5959 242.6072)" class="st4" width="0.9" height="478.9"/>
			</g>
			<g>
				
					<rect x="305.1" y="34.7" transform="matrix(0.788 -0.6157 0.6157 0.788 -103.9884 246.2487)" class="st4" width="0.9" height="478.9"/>
			</g>
			<g>
				
					<rect x="313.2" y="28.4" transform="matrix(0.788 -0.6157 0.6157 0.788 -98.3809 249.8902)" class="st4" width="0.9" height="478.9"/>
			</g>
			<g>
				
					<rect x="321.3" y="22" transform="matrix(0.788 -0.6157 0.6157 0.788 -92.7734 253.5316)" class="st4" width="0.9" height="478.9"/>
			</g>
		</g>
		<g class="st3">
			<g>
				
					<rect x="328.8" y="14.8" transform="matrix(0.788 -0.6157 0.6157 0.788 -86.7038 256.6204)" class="st4" width="0.9" height="478.9"/>
			</g>
			<g>
				
					<rect x="336.9" y="8.4" transform="matrix(0.788 -0.6157 0.6157 0.788 -81.0963 260.2619)" class="st4" width="0.9" height="478.9"/>
			</g>
			<g>
				
					<rect x="345" y="2.1" transform="matrix(0.788 -0.6157 0.6157 0.788 -75.4888 263.9034)" class="st4" width="0.9" height="478.9"/>
			</g>
			<g>
				
					<rect x="353.1" y="-4.2" transform="matrix(0.788 -0.6157 0.6157 0.788 -69.8813 267.5449)" class="st4" width="0.9" height="478.9"/>
			</g>
			<g>
				
					<rect x="361.2" y="-10.5" transform="matrix(0.788 -0.6157 0.6157 0.788 -64.2738 271.1863)" class="st4" width="0.9" height="478.9"/>
			</g>
			<g>
				
					<rect x="369.3" y="-16.8" transform="matrix(0.788 -0.6157 0.6157 0.788 -58.6662 274.8278)" class="st4" width="0.9" height="478.9"/>
			</g>
			<g>
				
					<rect x="377.4" y="-23.2" transform="matrix(0.788 -0.6157 0.6157 0.788 -53.0587 278.4693)" class="st4" width="0.9" height="478.9"/>
			</g>
			<g>
				
					<rect x="385.5" y="-29.5" transform="matrix(0.788 -0.6157 0.6157 0.788 -47.4512 282.1108)" class="st4" width="0.9" height="478.9"/>
			</g>
			<g>
				
					<rect x="393.6" y="-35.8" transform="matrix(0.788 -0.6157 0.6157 0.788 -41.8437 285.7523)" class="st4" width="0.9" height="478.9"/>
			</g>
			<g>
				
					<rect x="401.6" y="-42.1" transform="matrix(0.788 -0.6157 0.6157 0.788 -36.2362 289.3937)" class="st4" width="0.9" height="478.9"/>
			</g>
			<g>
				
					<rect x="409.7" y="-48.5" transform="matrix(0.788 -0.6157 0.6157 0.788 -30.6282 293.0355)" class="st4" width="0.9" height="478.9"/>
			</g>
			<g>
				
					<rect x="417.8" y="-54.8" transform="matrix(0.788 -0.6157 0.6157 0.788 -25.0207 296.677)" class="st4" width="0.9" height="478.9"/>
			</g>
			<g>
				
					<rect x="425.9" y="-61.1" transform="matrix(0.788 -0.6157 0.6157 0.788 -19.4132 300.3185)" class="st4" width="0.9" height="478.9"/>
			</g>
			<g>
				
					<rect x="434" y="-67.4" transform="matrix(0.788 -0.6157 0.6157 0.788 -13.8057 303.96)" class="st4" width="0.9" height="478.9"/>
			</g>
			<g>
				
					<rect x="442.1" y="-73.7" transform="matrix(0.788 -0.6157 0.6157 0.788 -8.1982 307.6014)" class="st4" width="0.9" height="478.9"/>
			</g>
			<g>
				
					<rect x="450.2" y="-80.1" transform="matrix(0.788 -0.6157 0.6157 0.788 -2.5907 311.2429)" class="st4" width="0.9" height="478.9"/>
			</g>
			<g>
				
					<rect x="458.3" y="-86.4" transform="matrix(0.788 -0.6157 0.6157 0.788 3.0168 314.8844)" class="st4" width="0.9" height="478.9"/>
			</g>
			<g>
				
					<rect x="466.4" y="-92.7" transform="matrix(0.788 -0.6157 0.6157 0.788 8.6243 318.5258)" class="st4" width="0.9" height="478.9"/>
			</g>
			<g>
				
					<rect x="474.5" y="-99" transform="matrix(0.788 -0.6157 0.6157 0.788 14.2318 322.1673)" class="st4" width="0.9" height="478.9"/>
			</g>
			<g>
				
					<rect x="482.6" y="-105.3" transform="matrix(0.788 -0.6157 0.6157 0.788 19.8393 325.8088)" class="st4" width="0.9" height="478.9"/>
			</g>
			<g>
				
					<rect x="490.7" y="-111.7" transform="matrix(0.788 -0.6157 0.6157 0.788 25.4473 329.4506)" class="st4" width="0.9" height="478.9"/>
			</g>
			<g>
				
					<rect x="498.7" y="-118" transform="matrix(0.788 -0.6157 0.6157 0.788 31.0548 333.0921)" class="st4" width="0.9" height="478.9"/>
			</g>
			<g>
				
					<rect x="506.8" y="-124.3" transform="matrix(0.788 -0.6157 0.6157 0.788 36.6623 336.7336)" class="st4" width="0.9" height="478.9"/>
			</g>
			<g>
				
					<rect x="514.9" y="-130.6" transform="matrix(0.788 -0.6157 0.6157 0.788 42.2698 340.375)" class="st4" width="0.9" height="478.9"/>
			</g>
			<g>
				
					<rect x="523" y="-137" transform="matrix(0.788 -0.6157 0.6157 0.788 47.8773 344.0165)" class="st4" width="0.9" height="478.9"/>
			</g>
			<g>
				
					<rect x="531.1" y="-143.3" transform="matrix(0.788 -0.6157 0.6157 0.788 53.4848 347.658)" class="st4" width="0.9" height="478.9"/>
			</g>
			<g>
				
					<rect x="539.2" y="-149.6" transform="matrix(0.788 -0.6157 0.6157 0.788 59.0923 351.2995)" class="st4" width="0.9" height="478.9"/>
			</g>
			<g>
				
					<rect x="547.3" y="-155.9" transform="matrix(0.788 -0.6157 0.6157 0.788 64.6998 354.9409)" class="st4" width="0.9" height="478.9"/>
			</g>
			<g>
				
					<rect x="555.4" y="-162.2" transform="matrix(0.788 -0.6157 0.6157 0.788 70.3073 358.5824)" class="st4" width="0.9" height="478.9"/>
			</g>
			<g>
				
					<rect x="563.5" y="-168.6" transform="matrix(0.788 -0.6157 0.6157 0.788 75.9148 362.2239)" class="st4" width="0.9" height="478.9"/>
			</g>
		</g>
	</g>
	<g>
		<polygon class="st0" points="293.9,197.5 94.5,294.2 293.9,396.8 501.3,294.2 293.9,197.5 		"/>
		<polygon class="st1" points="294.5,211.7 123.6,294.7 294.5,382.6 472.2,294.7 294.5,211.7 		"/>
		<polygon class="st2" points="263.2,241.6 263.2,353.5 280.7,362.7 280.7,304.4 309.8,304.4 309.8,284.4 280.7,284.4 280.7,248.9 
			295.3,241.3 334.1,259.6 334.1,244.1 295.3,225.7 263.2,241.6 		"/>
		<polygon class="st0" points="260.6,236.5 260.6,348.4 278.1,357.6 278.1,299.3 307.2,299.3 307.2,279.3 278.1,279.3 278.1,243.8 
			292.7,236.2 331.5,254.5 331.5,239 292.7,220.6 260.6,236.5 		"/>
		<polygon class="st5" points="194.4,275.4 253,246.7 253,262.8 230.3,274.3 230.3,337.2 212.9,328.3 212.9,282.5 194.4,291.5 
			194.4,275.4 		"/>
		<polygon class="st0" points="191.5,272.6 250.1,243.8 250.1,260 227.3,271.5 227.3,334.4 210,325.5 210,279.7 191.5,288.7 
			191.5,272.6 		"/>
		<polygon class="st2" points="343.5,346.3 404,316.8 404,303.4 361.8,321.8 361.8,272 404,292 404,276.6 343.5,248.2 343.5,346.3 
					"/>
		<polygon class="st0" points="340,343.2 400.5,313.7 400.5,300.3 358.3,318.8 358.3,268.9 400.5,288.9 400.5,273.5 340,245.2 
			340,343.2 		"/>
	</g>
	<path class="st1" d="M151.7,468.7l24.1,18.6l-4.9,6.4l-8.1-6.3l-14.9,19.3l-7.8-6.1l14.8-19.3l-8.1-6.2L151.7,468.7L151.7,468.7z
		 M151.7,468.7L151.7,468.7L151.7,468.7z M166.9,500.3c2.6-4.6,6-7.4,10-8.5c4-1.1,8.3-0.3,12.8,2.3c4.7,2.7,7.5,6.1,8.6,9.9
		c1.1,4,0.3,8.2-2.3,12.7c-1.9,3.3-4,5.6-6.3,7.1c-2.3,1.5-4.8,2.2-7.6,2.1c-2.7,0-5.7-0.9-8.8-2.7c-3.1-1.8-5.4-3.8-6.9-6.1
		c-1.5-2.2-2.3-4.7-2.3-7.7C164.2,506.7,165.1,503.6,166.9,500.3L166.9,500.3z M166.9,500.3L166.9,500.3L166.9,500.3z M175.6,505.4
		c-1.6,2.8-2.3,5.1-1.9,7c0.4,1.8,1.5,3.3,3.3,4.3c1.9,1.1,3.6,1.3,5.4,0.7c1.7-0.6,3.5-2.5,5.3-5.6c1.6-2.6,2.1-4.9,1.7-6.7
		c-0.3-1.9-1.4-3.3-3.3-4.3c-1.7-1-3.5-1.2-5.3-0.5C179,500.7,177.3,502.5,175.6,505.4L175.6,505.4z M175.6,505.4L175.6,505.4
		L175.6,505.4z M204.4,503.4l12.5,4.2l-1.5,20.2l11.1-17l12.4,4.1l-10.2,30.7L221,543l7.8-23.4L214.9,541l-7-2.4l1.9-25.4l-7.8,23.4
		l-7.8-2.6L204.4,503.4L204.4,503.4z M204.4,503.4L204.4,503.4L204.4,503.4z M242.4,515.8l18.4,3.4c3,0.5,5.3,1.7,6.6,3.6
		c1.4,1.8,1.9,3.8,1.5,6.1c-0.4,1.9-1.2,3.4-2.7,4.6c-0.9,0.8-2.2,1.2-3.8,1.6c2.2,0.9,3.7,2.2,4.5,3.7c0.9,1.6,1.1,3.3,0.7,5.4
		c-0.3,1.6-0.9,3-1.9,4.2c-1,1.2-2.3,2-3.7,2.6c-0.9,0.3-2.3,0.4-4,0.3c-2.3-0.1-3.7-0.2-4.5-0.4l-16.9-3.1L242.4,515.8L242.4,515.8
		z M242.4,515.8L242.4,515.8L242.4,515.8z M250,530.1l4.3,0.8c1.6,0.3,2.6,0.2,3.3-0.2c0.7-0.5,1.2-1.2,1.3-2.2
		c0.2-0.9,0-1.7-0.5-2.3c-0.5-0.6-1.6-1.1-3-1.3l-4.3-0.9L250,530.1L250,530.1z M250,530.1L250,530.1L250,530.1z M247.7,542.7l5,0.9
		c1.7,0.4,2.9,0.2,3.8-0.2c0.8-0.5,1.2-1.2,1.5-2.2c0.2-0.9-0.1-1.8-0.6-2.5c-0.6-0.7-1.7-1.2-3.5-1.5l-5-0.9L247.7,542.7
		L247.7,542.7z M247.7,542.7L247.7,542.7L247.7,542.7z M271.9,537.6c0.2-5.3,1.8-9.4,4.8-12.2c3-2.9,7.1-4.2,12.4-4
		c5.4,0.2,9.5,1.8,12.3,4.7c2.8,2.9,4.1,7.1,4,12.3c-0.1,3.7-0.9,6.8-2.2,9.2c-1.4,2.4-3.3,4.2-5.7,5.5c-2.5,1.2-5.5,1.9-9.1,1.7
		c-3.6-0.1-6.6-0.8-9-2c-2.3-1.2-4.2-3.1-5.6-5.7C272.4,544.6,271.7,541.4,271.9,537.6L271.9,537.6z M271.9,537.6L271.9,537.6
		L271.9,537.6z M281.8,538c-0.1,3.3,0.5,5.6,1.6,7.1c1.2,1.5,2.8,2.3,4.9,2.3c2.2,0,3.8-0.6,5-1.9c1.2-1.4,1.9-3.9,2-7.5
		c0.1-3-0.5-5.4-1.6-6.8c-1.2-1.4-2.9-2.2-5-2.3c-2-0.1-3.6,0.6-4.9,2C282.7,532.2,282,534.7,281.8,538L281.8,538z M281.8,538
		L281.8,538L281.8,538z M308.8,544.1l9.3-1.7c0.4,1.5,1,2.6,1.7,3.3c1.2,1.2,2.7,1.6,4.6,1.4c1.4-0.2,2.5-0.6,3.2-1.4
		c0.7-0.7,0.9-1.6,0.9-2.4c-0.1-0.9-0.5-1.6-1.4-2.1c-0.8-0.6-2.6-1-5.3-1.2c-4.4-0.5-7.7-1.4-9.7-2.8c-2.1-1.4-3.3-3.3-3.6-5.9
		c-0.2-1.6,0.1-3.3,0.9-4.9c0.8-1.6,2.1-2.9,3.9-4c1.9-1.1,4.4-1.8,7.8-2.2c4.1-0.5,7.3-0.2,9.6,1.2c2.3,1.2,4,3.5,4.7,6.8l-9.2,1.6
		c-0.5-1.4-1.1-2.4-1.9-2.9c-0.9-0.6-2-0.8-3.4-0.6c-1.2,0.2-2,0.5-2.6,1.1c-0.5,0.5-0.7,1.2-0.6,1.9c0.1,0.5,0.4,0.9,0.9,1.2
		c0.5,0.4,1.7,0.7,3.5,0.9c4.4,0.4,7.6,0.9,9.6,1.7c1.9,0.8,3.5,1.8,4.5,3.1c1,1.3,1.6,2.9,1.9,4.6c0.2,2.1-0.1,4-1,5.9
		c-0.9,1.9-2.4,3.4-4.3,4.5c-1.9,1.2-4.4,1.9-7.5,2.3c-5.4,0.6-9.3,0-11.7-1.8C311,549.9,309.5,547.3,308.8,544.1L308.8,544.1z
		 M308.8,544.1L308.8,544.1L308.8,544.1z M370,527.4c0.5,1.9,0.3,3.8-0.6,5.5c-1,1.9-2.5,3-4.4,3.6c-1.9,0.5-3.8,0.3-5.5-0.7
		c-1.8-1-2.9-2.4-3.5-4.4c-0.5-1.9-0.3-3.8,0.7-5.6c0.9-1.7,2.4-2.9,4.3-3.4c1.9-0.5,3.8-0.3,5.6,0.6
		C368.4,523.9,369.5,525.4,370,527.4L370,527.4z M370,527.4L370,527.4L370,527.4z M381.7,506.2l11.8-5.9l13.3,15.4l-4.3-19.9
		l11.7-5.9l14.4,29l-7.3,3.6l-11-22l5.4,24.8l-6.6,3.3l-16.6-19.2l10.9,22l-7.3,3.7L381.7,506.2L381.7,506.2z M381.7,506.2
		L381.7,506.2L381.7,506.2z M441.6,495.5l-4-5.6l12.6-9l8,11.3c-1.2,3.3-2.6,6-4,7.9c-1.4,1.9-3.3,3.8-5.9,5.6
		c-3.1,2.3-6.1,3.6-8.8,3.9c-2.7,0.4-5.4-0.2-7.9-1.5c-2.6-1.3-4.9-3.3-6.8-6.1c-2.1-2.9-3.3-5.7-3.6-8.7c-0.3-3,0.2-5.9,1.8-8.6
		c1.2-2.2,3.3-4.3,6.2-6.4c2.9-2.1,5.3-3.4,7.1-3.9c1.9-0.5,3.6-0.5,5.4-0.2c1.7,0.5,3.4,1.3,5.1,2.6l-6.8,7.1
		c-1.1-0.8-2.2-1.2-3.3-1.2c-1.2,0.1-2.3,0.5-3.6,1.3c-1.7,1.3-2.7,2.9-2.9,5c-0.2,2,0.7,4.3,2.6,7.1c2,2.8,4,4.4,5.9,4.9
		c1.9,0.5,3.9,0,5.8-1.4c0.9-0.6,1.6-1.4,2.3-2.3c0.6-0.9,1.2-1.9,1.9-3.3l-1.8-2.5L441.6,495.5L441.6,495.5z"/>
	<path class="st2" d="M65.1,401c-7.5-39.4-4.2-57.1-2.6-78.1c0.3,59.7,22.1,110.9,70.5,151.5c-22.6-19.6-47.2-37.6-76.6-51.4
		c5.7-1.9,12-3.7,10.8-6.7c-1.8-4.7-6.3-9.4-12.8-13.8C58,400.4,61.5,399.1,65.1,401L65.1,401z"/>
	<path class="st2" d="M529,401c7.6-39.4,4.2-57.1,2.6-78.1c-0.3,59.7-22.1,110.9-70.4,151.5c22.5-19.6,47.1-37.6,76.5-51.4
		c-5.7-1.9-12-3.7-10.8-6.7c1.8-4.7,6.3-9.4,12.9-13.8C536.1,400.4,532.5,399.1,529,401L529,401z"/>
	<g>
		<path class="st6" d="M216.6,419.8l0.2-0.8h8.4c3.5,0,6.2,0.4,7.9,1.3c1.7,0.9,3.1,2.3,4.1,4.2c1,1.9,1.5,3.9,1.5,6.1
			c0,1.9-0.3,3.7-0.9,5.4c-0.6,1.8-1.2,3.2-2,4.2c-0.7,1.1-1.9,2.2-3.4,3.5c-1.5,1.3-3.2,2.2-5,2.8c-1.8,0.6-4,0.9-6.7,0.9h-11.1
			l0.3-0.8c1,0,1.7-0.1,2-0.3c0.5-0.2,0.9-0.6,1.1-1c0.4-0.6,0.8-1.8,1.3-3.5l4.6-17.2c0.4-1.4,0.5-2.4,0.5-3.2c0-0.5-0.2-1-0.5-1.3
			c-0.3-0.3-1-0.4-2-0.4H216.6z M223.4,420.6l-5.7,21.3c-0.4,1.6-0.6,2.6-0.6,3c0,0.2,0.1,0.4,0.2,0.6c0.1,0.2,0.3,0.3,0.6,0.4
			c0.3,0.1,0.9,0.2,1.6,0.2c2,0,3.9-0.2,5.6-0.7c1.7-0.5,3.2-1.1,4.3-2c1.6-1.3,2.8-3.1,3.8-5.4c0.9-2.3,1.4-4.9,1.4-7.8
			c0-3.3-0.7-5.7-2.2-7.3c-1.4-1.6-3.5-2.4-6.3-2.4C225.4,420.5,224.5,420.5,223.4,420.6z"/>
		<path class="st6" d="M242.1,439.5c-0.1,0.7-0.1,1.3-0.1,1.7c0,1.2,0.4,2.3,1.2,3.2c0.8,0.9,1.8,1.3,3,1.3c0.9,0,1.8-0.2,2.7-0.6
			c0.9-0.4,2.1-1.3,3.8-2.7l0.4,0.6c-3.1,3.3-6,4.9-8.7,4.9c-1.9,0-3.3-0.6-4.2-1.9c-1-1.3-1.4-2.7-1.4-4.3c0-2.1,0.6-4.2,1.8-6.4
			c1.2-2.2,2.7-3.9,4.5-5.1c1.8-1.2,3.6-1.8,5.5-1.8c1.4,0,2.4,0.3,3,0.9c0.7,0.6,1,1.3,1,2.1c0,1.2-0.4,2.3-1.3,3.3
			c-1.1,1.4-2.8,2.5-4.9,3.3C246.7,438.7,244.7,439.2,242.1,439.5z M242.2,438.5c1.9-0.2,3.5-0.6,4.7-1.2c1.6-0.8,2.8-1.7,3.6-2.8
			c0.8-1.1,1.2-2.1,1.2-3c0-0.6-0.2-1.1-0.5-1.4c-0.3-0.4-0.8-0.5-1.5-0.5c-1.3,0-2.7,0.8-4.2,2.3S242.9,435.5,242.2,438.5z"/>
		<path class="st6" d="M267.3,428.5l-1.2,6.4h-0.7c-0.1-1.9-0.4-3.2-1.1-4.1c-0.7-0.9-1.5-1.3-2.5-1.3c-0.8,0-1.4,0.2-1.9,0.7
			c-0.5,0.5-0.7,1-0.7,1.7c0,0.5,0.1,0.9,0.3,1.3c0.2,0.4,0.6,1,1.2,1.8c1.7,2,2.8,3.5,3.2,4.5c0.5,1,0.7,2,0.7,2.8
			c0,1.5-0.6,2.7-1.7,3.9c-1.1,1.1-2.5,1.7-4.2,1.7c-0.9,0-2-0.2-3.2-0.7c-0.4-0.2-0.8-0.3-1-0.3c-0.6,0-1,0.3-1.3,1h-0.7l1.2-6.8
			h0.7c0.1,2.1,0.5,3.6,1.2,4.5c0.7,0.9,1.7,1.3,3,1.3c1,0,1.8-0.3,2.3-0.9c0.6-0.6,0.9-1.3,0.9-2.2c0-0.6-0.1-1.1-0.3-1.5
			c-0.4-0.8-1.1-2-2.3-3.5c-1.2-1.5-1.9-2.6-2.2-3.3c-0.3-0.7-0.5-1.5-0.5-2.2c0-1.4,0.5-2.5,1.4-3.4c0.9-0.9,2.1-1.4,3.5-1.4
			c0.4,0,0.8,0,1.1,0.1c0.2,0,0.6,0.2,1.3,0.5c0.7,0.3,1.1,0.4,1.3,0.4c0.6,0,1-0.3,1.4-1H267.3z"/>
		<path class="st6" d="M287.8,417.6l-6.6,24.7c-0.4,1.3-0.5,2.2-0.5,2.6c0,0.1,0.1,0.3,0.2,0.4c0.1,0.1,0.2,0.2,0.3,0.2
			c0.2,0,0.4-0.1,0.6-0.3c0.4-0.3,1.2-1.2,2.2-2.5l0.7,0.4c-0.9,1.4-1.9,2.5-2.8,3.4c-0.9,0.9-1.8,1.3-2.7,1.3
			c-0.4,0-0.8-0.2-1.1-0.5s-0.4-0.8-0.4-1.4c0-0.8,0.2-1.9,0.6-3.2l0.8-2.6c-1.9,3.1-3.6,5.3-5.1,6.5c-1.1,0.8-2.1,1.2-3,1.2
			c-1,0-1.8-0.5-2.6-1.4c-0.7-0.9-1.1-2.2-1.1-3.8c0-2.1,0.6-4.3,1.8-6.7c1.2-2.4,2.8-4.3,4.8-5.8c1.6-1.2,3-1.8,4.4-1.8
			c0.7,0,1.3,0.2,1.8,0.5c0.5,0.3,1,0.8,1.5,1.5l1.9-7.3c0.1-0.5,0.3-0.9,0.3-1.2c0.2-0.6,0.2-1,0.2-1.4c0-0.3-0.1-0.5-0.3-0.7
			c-0.3-0.2-0.6-0.4-1-0.4c-0.3,0-0.8,0-1.5,0.1v-0.8L287.8,417.6z M280.6,432.5c0-0.9-0.2-1.6-0.7-2.2c-0.5-0.5-1.1-0.8-1.8-0.8
			c-1.6,0-3.3,1.5-5.1,4.4c-1.8,2.9-2.6,5.7-2.6,8.3c0,1,0.2,1.8,0.6,2.4c0.4,0.6,0.9,0.8,1.5,0.8c1.3,0,3-1.6,5-4.7
			C279.6,437.6,280.6,434.8,280.6,432.5z"/>
		<path class="st6" d="M288.9,439.5c-0.1,0.7-0.1,1.3-0.1,1.7c0,1.2,0.4,2.3,1.2,3.2c0.8,0.9,1.8,1.3,3,1.3c0.9,0,1.8-0.2,2.7-0.6
			c0.9-0.4,2.1-1.3,3.8-2.7l0.4,0.6c-3.1,3.3-6,4.9-8.7,4.9c-1.9,0-3.3-0.6-4.2-1.9c-1-1.3-1.4-2.7-1.4-4.3c0-2.1,0.6-4.2,1.8-6.4
			c1.2-2.2,2.7-3.9,4.5-5.1c1.8-1.2,3.6-1.8,5.5-1.8c1.4,0,2.4,0.3,3,0.9c0.7,0.6,1,1.3,1,2.1c0,1.2-0.4,2.3-1.3,3.3
			c-1.1,1.4-2.8,2.5-4.9,3.3C293.5,438.7,291.5,439.2,288.9,439.5z M289,438.5c1.9-0.2,3.5-0.6,4.7-1.2c1.6-0.8,2.8-1.7,3.6-2.8
			c0.8-1.1,1.2-2.1,1.2-3c0-0.6-0.2-1.1-0.5-1.4c-0.3-0.4-0.8-0.5-1.5-0.5c-1.3,0-2.7,0.8-4.2,2.3
			C290.8,433.3,289.7,435.5,289,438.5z"/>
		<path class="st6" d="M324.2,418.4l-6.2,23.5c-0.4,1.4-0.5,2.4-0.5,3c0,0.5,0.2,0.9,0.5,1.2c0.3,0.3,1.1,0.5,2.3,0.6l-0.2,0.8h-9.9
			l0.3-0.8c1.1,0,1.8-0.1,2.1-0.3c0.5-0.3,0.9-0.6,1.2-1c0.4-0.6,0.9-1.8,1.3-3.5l4.5-16.9c0.3-1,0.4-1.6,0.4-1.8
			c0-0.3,0.1-0.6,0.1-0.8c0-0.5-0.1-0.9-0.4-1.2c-0.2-0.3-0.6-0.4-1-0.4c-0.3,0-0.9,0.1-1.6,0.3l-0.3-0.8l6.5-2H324.2z"/>
		<path class="st6" d="M326.6,447.9v-0.7c1.3-0.3,2.5-0.8,3.5-1.3c1.7-1,3.3-2.3,4.7-3.8c1.4-1.5,2.6-3.3,3.7-5.3
			c-0.8,0.4-1.4,0.7-1.8,0.8c-0.4,0.1-0.9,0.2-1.5,0.2c-1.9,0-3.4-0.7-4.5-2.2c-1-1.4-1.5-3.1-1.5-5c0-3.3,1-6.2,3-8.6
			s4.1-3.6,6.4-3.6c2,0,3.6,0.8,4.7,2.5c1.1,1.7,1.6,3.6,1.6,5.9c0,2.8-0.6,5.6-1.8,8.4c-1.2,2.8-2.9,5.1-4.9,7.1
			c-2.1,2-4.3,3.5-6.5,4.4C330.3,447.3,328.6,447.7,326.6,447.9z M339.4,435c1.8-4,2.7-7.6,2.7-10.7c0-1.5-0.3-2.7-1-3.5
			c-0.7-0.8-1.5-1.3-2.4-1.3c-1.5,0-2.9,1.2-4.2,3.5c-1.3,2.3-1.9,5-1.9,8.2c0,1.7,0.4,2.9,1.1,3.8c0.7,0.9,1.6,1.3,2.7,1.3
			c0.5,0,0.9-0.1,1.4-0.2C338.2,435.9,338.7,435.5,339.4,435z"/>
		<path class="st6" d="M359.8,418.4l-6.2,23.5c-0.4,1.4-0.5,2.4-0.5,3c0,0.5,0.2,0.9,0.5,1.2c0.3,0.3,1.1,0.5,2.3,0.6l-0.2,0.8h-9.9
			l0.3-0.8c1.1,0,1.8-0.1,2.1-0.3c0.5-0.3,0.9-0.6,1.2-1c0.4-0.6,0.9-1.8,1.3-3.5L355,425c0.3-1,0.4-1.6,0.4-1.8
			c0-0.3,0.1-0.6,0.1-0.8c0-0.5-0.1-0.9-0.4-1.2c-0.2-0.3-0.6-0.4-1-0.4c-0.3,0-0.9,0.1-1.6,0.3l-0.3-0.8l6.5-2H359.8z"/>
		<path class="st6" d="M380.3,419l-5,18.7h3.1l-0.7,2.6h-3.2l-2,7.6h-2.8l2-7.6h-9.5l0.8-2.9l15.7-18.3H380.3z M376,424.4
			l-11.3,13.3h7.7L376,424.4z"/>
	</g>
</g>
</svg>
